<svg width="62" height="40" viewBox="0 0 62 40" fill="none" xmlns="http://www.w3.org/2000/svg">
<mask id="mask0_8_24" style="mask-type:luminance" maskUnits="userSpaceOnUse" x="0" y="0" width="62" height="40">
<path d="M61.2974 0H0V40H61.2974V0Z" fill="white"/>
</mask>
<g mask="url(#mask0_8_24)">
<path d="M20.8108 10.7568C18.9517 9.72519 17.797 9.36645 15.8378 8.54061C12.5684 7.16245 10.6183 6.68119 7.3513 5.29734C5.86325 4.66703 5.02691 4.31585 3.56752 3.62168C2.1779 2.96068 0.0540093 1.83789 0.0540093 1.83789C0.0540093 1.83789 0.00533852 2.00066 -4.47964e-05 2.10816C-0.00977833 2.30254 0.0588419 2.40636 0.108063 2.59465C0.244909 3.11813 0.334316 3.41756 0.59455 3.89195C0.819977 4.30289 0.896366 4.49892 1.18916 4.86492C1.6216 5.40545 2.1167 5.86408 2.75673 6.37845C3.12208 6.67203 3.35132 6.81087 3.7297 7.08113C4.21617 7.42861 7.3513 8.64871 7.3513 8.64871C7.3513 8.64871 8.56167 9.10287 9.3513 9.3514C10.8653 9.82792 13.2973 10.3244 13.2973 10.3244L17.081 11.4054L14.8648 11.2433L10.5946 10.4325L7.78372 9.72976L6.43241 9.3514C6.43241 9.3514 4.70268 8.86492 4.21617 8.70276C4.06366 8.65192 3.9928 8.58329 3.83779 8.54061C3.6737 8.49545 3.40536 8.48655 3.40536 8.48655L3.18914 8.70276C3.04907 8.93966 3.17691 9.13834 3.2432 9.40545C3.29795 9.62613 3.3615 9.74082 3.45941 9.94598C3.55301 10.1421 3.72968 10.4325 3.72968 10.4325C3.72968 10.4325 4.02062 10.7246 4.21617 10.8649C4.66818 11.1892 5.51346 11.5676 5.51346 11.5676C5.51346 11.5676 6.36009 11.8957 6.91888 12.0541C7.48062 12.2132 8.37836 12.3784 8.37836 12.3784L9.62157 12.5947L12.7567 12.919L16.9189 13.1352L18.7567 13.3514L17.5135 13.6217L16.2703 13.7838L14.4865 13.8919H12.8648L9.13509 13.8379L7.18915 13.7838C7.07904 13.8389 6.91888 13.946 6.91888 13.946C6.91888 13.946 6.89104 14.1793 6.91888 14.3244C6.9762 14.6234 7.13767 14.7562 7.3513 14.973C7.64351 15.2696 8.2702 15.5136 8.2702 15.5136L9.02699 15.6757L10.108 15.7298H11.4054L13.2973 15.6757L14.9729 15.4595C14.9729 15.4595 15.7655 15.3205 16.2703 15.2433C16.8432 15.1556 17.7297 14.973 17.7297 14.973L19.4054 14.7028L20.3243 14.4325L20.9729 14.3784L21.1351 14.5406L20.2703 14.973L18.7567 15.6217L15.3513 16.6487L13.9459 16.973L12.7567 17.2433L11.7838 17.5676L11.6216 17.6757C11.6216 17.6757 11.8516 17.8087 12 17.8919C12.2306 18.0213 12.3497 18.1164 12.5946 18.2163C12.9359 18.3555 13.5135 18.4325 13.5135 18.4325L14 18.5406L14.7027 18.5947L15.5135 18.5406L16.5946 18.2703L17.6216 17.946L18.2703 17.6757L18.9729 17.3514L19.7297 17.0271L20.4865 16.6487L20.9729 16.4325L21.6757 16.2163L22.054 16.1622H22.2162L21.8378 16.5406L21.2432 17.0271L20.6486 17.3514L19.8919 17.7838L19.081 18.3784L18.054 18.8109L17.2973 19.1892L16.5946 19.5136L16.1621 19.7298C16.1621 19.7298 15.9082 19.8327 15.9459 19.946C15.9758 20.0355 16.0746 20.0189 16.1621 20.0541C16.381 20.1423 16.5231 20.1289 16.7567 20.1622L16.7825 20.1659C16.956 20.1907 17.0611 20.2057 17.2432 20.2163C17.4539 20.2285 17.5726 20.2163 17.7838 20.2163C17.9316 20.2163 18.0151 20.2312 18.1621 20.2163C18.4478 20.1873 18.8648 20.0001 18.8648 20.0001L19.8919 19.5136L20.8648 18.919L21.5676 18.4325L22.054 18.0001H22.1621L21.6216 18.5947L22.3243 18.0541C22.3243 18.0541 21.79 18.7364 21.4054 19.1352C20.9994 19.5559 20.7414 19.7704 20.3003 20.1372L20.2703 20.1622C20.0624 20.3351 19.9387 20.4232 19.7297 20.5947C19.6023 20.6992 19.4054 20.8649 19.4054 20.8649C19.3946 20.9513 19.4179 21.0047 19.4594 21.0811C19.524 21.1999 19.6186 21.2204 19.7297 21.2973C19.8696 21.3943 19.9428 21.4729 20.1081 21.5136C20.2516 21.5488 20.3408 21.5391 20.4865 21.5136C20.6912 21.4777 20.7936 21.4024 20.9729 21.2973C21.1551 21.1907 21.2414 21.106 21.4054 20.973C21.649 20.7754 21.781 20.6573 22 20.4325C22.2508 20.175 22.396 20.0294 22.5946 19.7298C22.7406 19.5093 22.7791 19.3597 22.9189 19.1352C23.1731 18.7266 23.6757 18.1622 23.6757 18.1622L23.7297 18.2163L23.4594 18.5406L23.2973 18.919H23.4054L23.6216 18.4866C23.6216 18.4866 23.6077 18.7536 23.5676 18.919C23.5249 19.0942 23.4802 19.1873 23.4054 19.3514C23.2717 19.6446 23.1413 19.7794 22.9729 20.0541C22.6759 20.5388 22.5327 20.8253 22.2162 21.2973C22.0726 21.5113 21.95 21.606 21.8378 21.8379C21.7883 21.9402 21.7297 21.9944 21.7297 22.1082C21.7297 22.2219 21.7579 22.2976 21.8378 22.3785C21.9041 22.4456 21.9615 22.4679 22.054 22.4866C22.1799 22.5119 22.2524 22.4996 22.3784 22.4866C22.5516 22.4686 22.7027 22.4325 22.8108 22.3785C22.9189 22.3244 23.0625 22.2137 23.1891 22.1082C23.3159 22.0027 23.3106 21.9532 23.4054 21.8379C23.502 21.7203 23.6216 21.5136 23.6216 21.5136L23.8919 21.0811C23.8919 21.0811 23.9811 20.8904 24.054 20.7568C24.1309 20.6156 24.1418 20.521 24.2162 20.3785C24.3217 20.1759 24.5405 19.8919 24.5405 19.8919C24.5405 19.8919 24.5584 20.3208 24.5405 20.5947C24.5281 20.7853 24.5137 20.8919 24.4865 21.0811C24.4681 21.2083 24.4645 21.2811 24.4324 21.4054C24.3699 21.6476 24.3201 21.7618 24.222 21.9866L24.2162 22.0001C24.1065 22.2516 24.002 22.3878 23.8919 22.6487C23.8217 22.8149 23.7501 22.9019 23.7297 23.0811C23.7297 23.0811 23.6969 23.2195 23.7297 23.2973C23.7973 23.4578 23.9922 23.4432 24.1621 23.4054C24.2823 23.3788 24.3337 23.3168 24.4324 23.2433C24.5712 23.1399 24.637 23.0616 24.7453 22.9326L24.7567 22.919C24.9036 22.7442 24.9309 22.6045 25.081 22.4325C25.1596 22.3426 25.2973 22.2163 25.2973 22.2163C25.2973 22.2163 25.3686 22.9466 25.2973 23.4054C25.2673 23.5978 25.2378 23.7035 25.1891 23.8919C25.134 24.1053 25.0566 24.2141 25.027 24.4325C25.0015 24.6207 24.9522 24.7444 25.027 24.919C25.0975 25.0836 25.1725 25.2332 25.3513 25.2433C25.4648 25.2497 25.5764 25.2446 25.6757 25.1892C25.8197 25.1089 25.8704 25.0114 25.9459 24.8649C26.0257 24.7102 26.0307 24.605 26.054 24.4325C26.0823 24.2233 26.054 24.1031 26.054 23.8919C26.054 23.7864 26.0161 23.7202 26.054 23.6217C26.0968 23.5102 26.1621 23.3514 26.1621 23.3514C26.1621 23.3514 26.4653 23.4702 26.5946 23.6217C26.8042 23.8673 26.7242 24.1112 26.7567 24.4325C26.7908 24.7685 26.8207 24.9657 26.7567 25.2973C26.6726 25.7331 26.2432 26.1082 26.2703 26.3244C26.3243 26.7568 27.1351 28.8109 27.2432 29.1352C27.3093 29.3334 27.4133 29.5296 27.6216 29.5136C27.8157 29.4987 27.8351 29.2952 27.9459 29.1352C28.2615 28.6797 28.3784 27.7838 28.3784 27.7838C28.3784 27.7838 28.6938 26.5743 28.8108 25.7838C28.9192 25.0503 28.9191 24.6315 28.9729 23.8919C29.0236 23.1959 29.081 22.1082 29.081 22.1082L28.9729 20.7028C28.9729 20.7028 28.8293 19.7661 28.6486 19.1892C28.4424 18.5306 28.2574 18.1835 27.9459 17.5676C27.5913 16.8666 27.3676 16.4828 26.9189 15.8379C26.0656 14.6117 25.4618 13.9953 24.3243 13.0271C23.0803 11.9682 22.2392 11.5494 20.8108 10.7568Z" fill="#FFA42B"/>
<path d="M40.4865 10.9729C42.3456 9.94128 43.5002 9.58254 45.4595 8.75664C48.7288 7.37854 50.679 6.89722 53.9458 5.51343C55.4342 4.88309 56.2705 4.53191 57.7294 3.83774C59.1194 3.17674 61.2431 2.05396 61.2431 2.05396C61.2431 2.05396 61.2921 2.21672 61.2973 2.32422C61.3068 2.5186 61.2384 2.62242 61.1889 2.81071C61.0521 3.33419 60.9631 3.63362 60.7026 4.10801C60.4773 4.51895 60.401 4.71498 60.1079 5.08098C59.6758 5.62154 59.1805 6.08012 58.5405 6.59449C58.1752 6.88812 57.9458 7.02691 57.5673 7.29717C57.081 7.6447 53.9458 8.86475 53.9458 8.86475C53.9458 8.86475 52.7358 9.31891 51.9459 9.56749C50.432 10.044 48 10.5404 48 10.5404L44.2162 11.6215L46.4324 11.4594L50.7027 10.6485L53.5137 9.94585L54.8647 9.56749C54.8647 9.56749 56.5947 9.08096 57.081 8.9188C57.2337 8.86796 57.3042 8.79933 57.4594 8.75664C57.6237 8.71149 57.8921 8.70259 57.8921 8.70259L58.1079 8.9188C58.2484 9.15575 58.1205 9.35438 58.0542 9.62154C57.9995 9.84217 57.9358 9.95685 57.8379 10.1621C57.7442 10.3582 57.5673 10.6485 57.5673 10.6485C57.5673 10.6485 57.2768 10.9406 57.081 11.081C56.6289 11.4053 55.7837 11.7837 55.7837 11.7837C55.7837 11.7837 54.9373 12.1118 54.3784 12.2702C53.8168 12.4293 52.9189 12.5945 52.9189 12.5945L51.6757 12.8107L48.5405 13.135L44.3783 13.3513L42.5405 13.5675L43.7838 13.8377L45.027 13.9999L46.8108 14.108H48.4324L52.1621 14.054L54.1079 13.9999C54.2184 14.0549 54.3784 14.1621 54.3784 14.1621C54.3784 14.1621 54.4063 14.3954 54.3784 14.5404C54.321 14.8395 54.1595 14.9722 53.9458 15.1891C53.6537 15.4856 53.0268 15.7296 53.0268 15.7296L52.2702 15.8918L51.1892 15.9459H49.8919L48 15.8918L46.3243 15.6756C46.3243 15.6756 45.5317 15.5365 45.027 15.4594C44.454 15.3717 43.5676 15.1891 43.5676 15.1891L41.8919 14.9188L40.973 14.6485L40.3243 14.5945L40.1621 14.7566L41.027 15.1891L42.5405 15.8377L45.9459 16.8647L47.3513 17.1891L48.5405 17.4594L49.5135 17.7837L49.6757 17.8918C49.6757 17.8918 49.4457 18.0247 49.2973 18.108C49.0666 18.2374 48.9476 18.3324 48.7027 18.4323C48.3614 18.5716 47.7838 18.6485 47.7838 18.6485L47.2973 18.7566L46.5946 18.8107L45.7838 18.7566L44.7027 18.4864L43.6757 18.1621L43.027 17.8918L42.3243 17.5675L41.5676 17.2431L40.8108 16.8647L40.3243 16.6485L39.6216 16.4323L39.2432 16.3783H39.0811L39.4594 16.7566L40.054 17.2431L40.6486 17.5675L41.4054 17.9999L42.2162 18.5945L43.2432 19.0269L44 19.4053L44.7027 19.7296L45.1351 19.9459C45.1351 19.9459 45.3891 20.0487 45.3513 20.1621C45.3215 20.2516 45.2227 20.2349 45.1351 20.2702C44.9162 20.3584 44.7741 20.345 44.5405 20.3783L44.5147 20.382C44.3413 20.4067 44.236 20.4217 44.054 20.4323C43.8433 20.4445 43.7246 20.4323 43.5135 20.4323C43.3657 20.4323 43.2821 20.4473 43.1351 20.4323C42.8495 20.4034 42.4324 20.2161 42.4324 20.2161L41.4054 19.7296L40.4324 19.135L39.7297 18.6485L39.2432 18.2161H39.1351L39.6757 18.8107L38.973 18.2702C38.973 18.2702 39.5071 18.9524 39.8919 19.3513C40.2978 19.772 40.5558 19.9865 40.9969 20.3533L41.027 20.3783C41.2349 20.5511 41.3586 20.6393 41.5676 20.8107C41.695 20.9153 41.8919 21.081 41.8919 21.081C41.9027 21.1674 41.8793 21.2207 41.8378 21.2972C41.7733 21.416 41.6787 21.4364 41.5676 21.5134C41.4277 21.6104 41.3544 21.689 41.1892 21.7296C41.0457 21.7649 40.9563 21.7551 40.8108 21.7296C40.606 21.6937 40.5037 21.6185 40.3243 21.5134C40.1421 21.4067 40.0558 21.3221 39.8919 21.1891C39.6481 20.9915 39.5162 20.8734 39.2973 20.6485C39.0465 20.391 38.9013 20.2455 38.7027 19.9459C38.5565 19.7254 38.5181 19.5758 38.3783 19.3513C38.124 18.9426 37.6216 18.3783 37.6216 18.3783L37.5676 18.4323L37.8378 18.7566L38 19.135H37.8919L37.6757 18.7026C37.6757 18.7026 37.6896 18.9696 37.7297 19.135C37.7722 19.3103 37.8171 19.4034 37.8919 19.5675C38.0256 19.8606 38.1559 19.9955 38.3243 20.2702C38.6214 20.7548 38.7644 21.0414 39.0811 21.5134C39.2246 21.7274 39.3471 21.8221 39.4594 22.054C39.509 22.1562 39.5676 22.2105 39.5676 22.3242C39.5676 22.438 39.5393 22.5136 39.4594 22.5945C39.3931 22.6616 39.3358 22.684 39.2432 22.7026C39.1174 22.728 39.0448 22.7157 38.9189 22.7026C38.7457 22.6846 38.5946 22.6485 38.4864 22.5945C38.3783 22.5404 38.2347 22.4297 38.1081 22.3242C37.9814 22.2187 37.9866 22.1693 37.8919 22.054C37.7952 21.9363 37.6757 21.7296 37.6757 21.7296L37.4054 21.2972C37.4054 21.2972 37.3161 21.1065 37.2432 20.9729C37.1662 20.8317 37.1553 20.7371 37.0811 20.5945C36.9756 20.392 36.7567 20.108 36.7567 20.108C36.7567 20.108 36.7388 20.5369 36.7567 20.8107C36.7692 21.0014 36.7836 21.108 36.8108 21.2972C36.8292 21.4243 36.8327 21.4972 36.8648 21.6215C36.9273 21.8637 36.9771 21.9779 37.0751 22.2026L37.0811 22.2161C37.1908 22.4677 37.2952 22.6039 37.4054 22.8647C37.4756 23.0309 37.5471 23.118 37.5676 23.2972C37.5676 23.2972 37.6003 23.4356 37.5676 23.5134C37.5 23.6739 37.3051 23.6593 37.1351 23.6215C37.0149 23.5948 36.9636 23.5329 36.8648 23.4594C36.726 23.356 36.6602 23.2776 36.552 23.1486L36.5405 23.135C36.3936 22.9602 36.3663 22.8205 36.2162 22.6485C36.1377 22.5586 36 22.4323 36 22.4323C36 22.4323 35.9286 23.1626 36 23.6215C36.0299 23.8139 36.0594 23.9196 36.1081 24.108C36.1632 24.3214 36.2406 24.4302 36.2702 24.6485C36.2958 24.8367 36.3451 24.9604 36.2702 25.135C36.1997 25.2997 36.1247 25.4493 35.9459 25.4594C35.8324 25.4657 35.7208 25.4606 35.6216 25.4053C35.4776 25.325 35.4269 25.2275 35.3513 25.081C35.2716 24.9263 35.2666 24.8211 35.2432 24.6485C35.2149 24.4394 35.2432 24.3191 35.2432 24.108C35.2432 24.0025 35.2811 23.9362 35.2432 23.8377C35.2003 23.7263 35.1351 23.5675 35.1351 23.5675C35.1351 23.5675 34.832 23.6863 34.7027 23.8377C34.493 24.0834 34.5731 24.3273 34.5405 24.6485C34.5064 24.9845 34.4765 25.1817 34.5405 25.5134C34.6246 25.9492 35.054 26.3242 35.027 26.5404C34.973 26.9729 34.1621 29.0269 34.054 29.3513C33.988 29.5495 33.884 29.7456 33.6757 29.7296C33.4816 29.7147 33.4621 29.5113 33.3513 29.3513C33.0358 28.8958 32.9189 27.9999 32.9189 27.9999C32.9189 27.9999 32.6033 26.7904 32.4864 25.9999C32.3779 25.2664 32.3781 24.8476 32.3243 24.108C32.2736 23.412 32.2162 22.3242 32.2162 22.3242L32.3243 20.9188C32.3243 20.9188 32.468 19.9822 32.6486 19.4053C32.8549 18.7466 33.0399 18.3996 33.3513 17.7837C33.7059 17.0826 33.9296 16.6988 34.3783 16.054C35.2317 14.8278 35.8353 14.2114 36.973 13.2431C38.217 12.1842 39.058 11.7655 40.4865 10.9729Z" fill="#FFA42B"/>
<path d="M5.82135 29.7654L5.72972 29.8821L4.92566 29.2506L5.01727 29.1339L5.2693 29.2847C5.30424 29.3032 5.33082 29.3151 5.34903 29.3203C5.36951 29.3229 5.39614 29.3147 5.42909 29.2957C5.46198 29.2767 5.51219 29.2442 5.57961 29.1984L8.32535 27.3402L8.68361 27.6216L7.53351 30.7329C7.50498 30.8092 7.48535 30.8656 7.47466 30.9022C7.46393 30.9386 7.4623 30.9665 7.46961 30.9857C7.48193 31.0043 7.49977 31.0274 7.52319 31.0547L7.7294 31.2639L7.63782 31.3805L6.48798 30.4775L6.57956 30.3609L6.83161 30.5116C6.8804 30.541 6.91272 30.5484 6.92861 30.5339C6.94945 30.5188 6.98166 30.4521 7.02524 30.3336L7.27266 29.6928L6.31024 28.937L5.74209 29.3259C5.64014 29.3986 5.58293 29.4457 5.57045 29.4674C5.56014 29.4862 5.57503 29.5158 5.61509 29.5562L5.82135 29.7654ZM6.47477 28.8304L7.34135 29.5109L7.99845 27.7908L6.47477 28.8304Z" fill="#FFA42B"/>
<path d="M10.8559 32.3825L10.9809 32.4625L10.4898 33.23L8.37036 31.8738L8.45031 31.7489L8.71573 31.8747C8.7671 31.8992 8.80299 31.9053 8.82331 31.8932C8.84557 31.8781 8.88905 31.8199 8.95378 31.7189L10.4156 29.4343C10.4803 29.3331 10.5139 29.2708 10.5165 29.2473C10.5208 29.2207 10.5012 29.1892 10.4574 29.1528L10.2319 28.9646L10.3119 28.8396L11.5345 29.622L11.4546 29.7469L11.1892 29.6211C11.1377 29.5966 11.1009 29.5918 11.0787 29.607C11.0584 29.6192 11.0157 29.6757 10.9511 29.7769L9.34931 32.28L10.0811 32.7483C10.1525 32.794 10.204 32.8249 10.2356 32.8409C10.2692 32.854 10.2952 32.856 10.3136 32.8469C10.3369 32.8366 10.3645 32.8165 10.3963 32.7865L10.8559 32.3825Z" fill="#FFA42B"/>
<path d="M14.9028 31.6725L14.9701 31.5403L15.8863 32.0056L15.8191 32.1379L15.5426 32.0389C15.489 32.0197 15.4519 32.0186 15.4313 32.0359C15.4123 32.05 15.3755 32.1105 15.3211 32.2177L14.4456 33.9416C14.2537 34.3194 14.0287 34.5636 13.7705 34.6741C13.5172 34.783 13.2267 34.7544 12.8993 34.588C12.5183 34.3945 12.264 34.1347 12.1366 33.8086C12.0091 33.4824 12.0446 33.1241 12.2428 32.7337L13.0824 31.0806C13.1368 30.9736 13.164 30.9081 13.1641 30.8845C13.166 30.8577 13.1433 30.8283 13.096 30.7964L12.8531 30.6314L12.9203 30.4991L14.2143 31.1565L14.1471 31.2887L13.8706 31.1898C13.817 31.1705 13.7799 31.1695 13.7593 31.1867C13.7403 31.2008 13.7036 31.2615 13.6492 31.3685L12.7928 33.0546C12.6137 33.4073 12.5488 33.695 12.5979 33.9181C12.647 34.1411 12.7913 34.3133 13.0305 34.4348C13.2636 34.5532 13.4822 34.5711 13.6864 34.4888C13.8923 34.4031 14.0808 34.1919 14.2519 33.855L15.1323 32.1217C15.1866 32.0146 15.2139 31.9492 15.214 31.9256C15.2157 31.8987 15.193 31.8693 15.1459 31.8375L14.9028 31.6725Z" fill="#FFA42B"/>
<path d="M19.1818 36.947L19.1311 37.0863L17.7668 36.5911L17.8174 36.4516L18.1039 36.5162C18.1595 36.5288 18.1958 36.527 18.213 36.5106C18.2314 36.4911 18.2611 36.4248 18.3021 36.312L19.2313 33.7526L17.3836 36.0011L16.8508 35.8076L16.8806 32.9161L15.9568 35.4605C15.9158 35.5734 15.8961 35.6433 15.8976 35.6701C15.9004 35.6937 15.927 35.7183 15.9778 35.7443L16.2389 35.8785L16.1884 36.018L15.2224 35.6673L15.273 35.5278L15.5595 35.5924C15.615 35.6051 15.6514 35.6033 15.6686 35.587C15.6869 35.5673 15.7167 35.5011 15.7576 35.3882L16.6831 32.8387C16.7241 32.726 16.7433 32.6578 16.7406 32.6342C16.739 32.6074 16.7129 32.5811 16.6622 32.5551L16.401 32.4208L16.4516 32.2814L17.5023 32.6627L17.4734 35.5828L19.3396 33.3298L20.3604 33.7004L20.3098 33.8398L20.0233 33.7753C19.9677 33.7626 19.9307 33.7661 19.9124 33.7858C19.8951 33.802 19.8661 33.8666 19.8251 33.9795L18.8996 36.529C18.8586 36.6418 18.8388 36.7116 18.8404 36.7384C18.8431 36.762 18.8699 36.7867 18.9206 36.8126L19.1818 36.947Z" fill="#FFA42B"/>
<path d="M21.057 34.0014L21.0936 33.8577L22.5003 34.2153L22.4638 34.359L22.1722 34.3232C22.1157 34.316 22.0792 34.3232 22.0629 34.3446C22.0474 34.3625 22.0248 34.4297 21.9953 34.546L21.327 37.1746C21.2975 37.291 21.2847 37.3624 21.289 37.389C21.2941 37.4121 21.323 37.4341 21.3761 37.4549L21.6493 37.5626L21.6127 37.7063L20.2061 37.3487L20.2426 37.205L20.5341 37.2408C20.5906 37.2479 20.6266 37.2425 20.6421 37.2246C20.6585 37.2032 20.6814 37.1343 20.711 37.018L21.3792 34.3894C21.4088 34.273 21.4211 34.2033 21.4161 34.1801C21.4119 34.1536 21.3832 34.1299 21.3303 34.1091L21.057 34.0014Z" fill="#FFA42B"/>
<path d="M25.4445 34.9218L25.4685 34.7754L26.4827 34.9414L26.4587 35.0877L26.1652 35.0773C26.1083 35.075 26.0726 35.0854 26.0582 35.108C26.0443 35.1273 26.0277 35.1961 26.0083 35.3146L25.4983 38.4303L25.2108 38.3833L23.7996 34.9693L23.3641 37.6301C23.3446 37.7486 23.3383 37.8209 23.3446 37.847C23.3517 37.8697 23.3826 37.889 23.4372 37.9051L23.7187 37.9888L23.6947 38.1352L22.6805 37.9691L22.7045 37.8227L22.9981 37.8333C23.0549 37.8354 23.0904 37.8268 23.1042 37.8077C23.1187 37.785 23.1356 37.7144 23.155 37.5959L23.5931 34.9193C23.6124 34.8008 23.6187 34.7302 23.6116 34.7076C23.6052 34.6816 23.5746 34.6604 23.52 34.6444L23.2385 34.5607L23.2624 34.4143L24.3132 34.5863L25.4612 37.3454L25.7991 35.2804C25.8186 35.1619 25.8248 35.0913 25.8178 35.0687C25.8113 35.0426 25.7808 35.0215 25.7261 35.0055L25.4445 34.9218Z" fill="#FFA42B"/>
<path d="M27.1759 35.1337L27.1872 34.9858L28.6345 35.0954L28.6233 35.2433L28.33 35.2583C28.2731 35.2611 28.2385 35.2744 28.226 35.2982C28.2139 35.3185 28.2032 35.3886 28.1942 35.5084L27.9896 38.2128C27.9805 38.3326 27.9802 38.4051 27.989 38.4306C27.998 38.4525 28.0303 38.4691 28.0861 38.4805L28.3739 38.5394L28.3627 38.6873L26.9154 38.5777L26.9266 38.4298L27.2198 38.4148C27.2767 38.4122 27.3113 38.4006 27.3234 38.3803C27.3358 38.3564 27.3467 38.2846 27.3556 38.1649L27.5602 35.4604C27.5694 35.3407 27.5695 35.2697 27.5605 35.2479C27.5517 35.2224 27.5195 35.2041 27.4637 35.1928L27.1759 35.1337Z" fill="#FFA42B"/>
<path d="M31.6352 35.2834L31.6335 35.1351L32.6612 35.1237L32.6628 35.272L32.3719 35.3123C32.3155 35.32 32.2822 35.3362 32.2718 35.361C32.2614 35.3823 32.257 35.453 32.2583 35.5731L32.2799 37.5065C32.2847 37.9302 32.1982 38.2509 32.0206 38.4683C31.8463 38.6821 31.5756 38.7911 31.2083 38.7952C30.7811 38.8 30.4355 38.6873 30.1715 38.4571C29.9076 38.2271 29.7732 37.893 29.7682 37.4551L29.7476 35.6012C29.7462 35.4811 29.7401 35.4106 29.7293 35.3895C29.7184 35.3649 29.6847 35.3493 29.6281 35.343L29.3363 35.3091L29.3347 35.1608L30.7861 35.1446L30.7877 35.2929L30.4968 35.3332C30.4403 35.3409 30.407 35.3572 30.3967 35.382C30.3863 35.4033 30.3818 35.474 30.3831 35.5941L30.4043 37.4851C30.4088 37.8806 30.4843 38.1658 30.6311 38.3408C30.7778 38.5158 30.9854 38.6017 31.2538 38.5987C31.5151 38.5958 31.7173 38.5106 31.8602 38.343C32.003 38.1719 32.0725 37.8973 32.0681 37.5194L32.0464 35.5756C32.0451 35.4554 32.039 35.3848 32.0281 35.3638C32.0173 35.3392 31.9836 35.3237 31.9269 35.3172L31.6352 35.2834Z" fill="#FFA42B"/>
<path d="M37.8693 37.979L37.8889 38.126L36.4503 38.3183L36.4306 38.1712L36.7145 38.0959C36.7695 38.0814 36.8009 38.063 36.8086 38.0406C36.8159 38.0147 36.8116 37.9422 36.7957 37.8232L36.4349 35.1244L35.8375 37.9726L35.2758 38.0478L33.964 35.4707L34.3226 38.1537C34.3385 38.2727 34.3533 38.3438 34.3671 38.3669C34.3804 38.3865 34.4156 38.3961 34.4724 38.3955L34.7661 38.3937L34.7858 38.5408L33.7672 38.6769L33.7476 38.5299L34.0315 38.4546C34.0865 38.4401 34.1178 38.4216 34.1256 38.3992C34.1327 38.3733 34.1284 38.3009 34.1125 38.1818L33.7533 35.4935C33.7373 35.3745 33.7227 35.3052 33.7094 35.2856C33.6957 35.2625 33.6603 35.2511 33.6034 35.2516L33.3096 35.2535L33.29 35.1065L34.3978 34.9584L35.7237 37.5603L36.3354 34.6994L37.4118 34.5555L37.4314 34.7026L37.1476 34.7779C37.0924 34.7924 37.0613 34.8126 37.054 34.8386C37.0464 34.861 37.0505 34.9316 37.0664 35.0507L37.4257 37.739C37.4416 37.858 37.4564 37.9291 37.4702 37.9522C37.4836 37.9718 37.5187 37.9813 37.5756 37.9809L37.8693 37.979Z" fill="#FFA42B"/>
<path d="M41.83 36.9812C42.0329 36.9205 42.1862 36.823 42.2898 36.6887C42.3957 36.5501 42.4178 36.3775 42.3561 36.1712C42.3105 36.019 42.2268 35.9058 42.105 35.8316C41.9868 35.7565 41.8025 35.7195 41.5521 35.7207L41.0376 35.7199C40.7795 35.7198 40.5604 35.6527 40.3802 35.5186C40.2023 35.3803 40.0743 35.1807 39.9964 34.9203C39.9447 34.7477 39.9355 34.5754 39.9687 34.4032C40.0053 34.23 40.0912 34.0734 40.2262 33.9334C40.3647 33.7925 40.5591 33.6846 40.8095 33.6095C41.0834 33.5275 41.3203 33.5119 41.5197 33.5628C41.7183 33.6102 41.8752 33.7034 41.9905 33.8421C42.1058 33.9809 42.1738 34.1467 42.1947 34.3395L41.643 34.6208C41.603 34.2899 41.5069 34.0551 41.3547 33.9164C41.2059 33.7766 41.02 33.7401 40.7966 33.807C40.6241 33.8586 40.5006 33.9509 40.4261 34.0838C40.355 34.2157 40.3477 34.3764 40.4045 34.5658C40.4511 34.7214 40.5361 34.8452 40.6595 34.9373C40.7863 35.0284 40.9626 35.0752 41.1882 35.0776L41.7027 35.0784C41.982 35.0759 42.2088 35.1315 42.383 35.2452C42.5561 35.3556 42.6827 35.5445 42.7627 35.8117C42.8194 36.0011 42.8266 36.1852 42.7842 36.3637C42.7442 36.538 42.6493 36.6954 42.4997 36.8359C42.3526 36.9723 42.1487 37.0793 41.8882 37.1573C41.6988 37.2141 41.5113 37.2407 41.326 37.2372C41.1396 37.2303 40.9697 37.1798 40.8162 37.0856C40.666 36.9905 40.5428 36.8377 40.4466 36.6269L40.75 36.4033C40.8317 36.6148 40.9298 36.7696 41.0441 36.8682C41.1607 36.9623 41.2853 37.0153 41.4179 37.0272C41.5539 37.0381 41.6912 37.0228 41.83 36.9812Z" fill="#FFA42B"/>
<path d="M42.6565 33.095L45.3572 32.0018L45.6991 32.8465L45.5616 32.902L45.1839 32.4206C45.1569 32.382 45.1334 32.3573 45.1137 32.3461C45.0959 32.3305 45.07 32.3277 45.036 32.3376C45.0019 32.3477 44.9456 32.3685 44.867 32.4003L44.3711 32.601L45.486 35.3558C45.5311 35.467 45.5632 35.5321 45.5823 35.5511C45.6001 35.5668 45.6365 35.5672 45.6915 35.5526L45.9754 35.4776L46.0311 35.6151L44.6857 36.1598L44.63 36.0223L44.8862 35.8786C44.936 35.8508 44.9617 35.8251 44.9637 35.8015C44.9642 35.7746 44.9419 35.7055 44.8969 35.5942L43.7818 32.8396L43.2859 33.0403C43.2105 33.0708 43.1557 33.0949 43.121 33.1127C43.0895 33.1293 43.0729 33.1494 43.071 33.1729C43.0678 33.1934 43.0683 33.2274 43.0724 33.2753L43.1359 33.884L42.9984 33.9396L42.6565 33.095Z" fill="#FFA42B"/>
<path d="M49.3858 32.9689L49.5172 32.9003L49.9389 33.708L47.6144 34.9215L47.5458 34.79L47.7869 34.6223C47.8337 34.5899 47.8569 34.5618 47.8565 34.5381C47.8544 34.5113 47.8257 34.4447 47.7701 34.3382L46.515 31.9339C46.4594 31.8275 46.422 31.7673 46.4028 31.7535C46.382 31.7365 46.3448 31.7379 46.2915 31.7578L46.0161 31.8597L45.9474 31.7283L48.2249 30.5393L48.6465 31.3469L48.5151 31.4156L48.0927 30.9728C48.0637 30.9401 48.0389 30.9193 48.0182 30.9101C47.999 30.8963 47.9729 30.8959 47.94 30.9091C47.9053 30.9192 47.8505 30.9438 47.7754 30.983L46.9583 31.4097L47.6545 32.7433L48.1899 32.4638C48.265 32.4246 48.3173 32.3953 48.3471 32.3758C48.3751 32.3533 48.3898 32.3316 48.391 32.311C48.3937 32.2858 48.3899 32.2518 48.3797 32.2094L48.2845 31.775L48.416 31.7064L49.0263 32.8757L48.8949 32.9444L48.593 32.6179C48.564 32.5853 48.5391 32.5644 48.5184 32.5553C48.4992 32.5414 48.4731 32.541 48.4403 32.5542C48.4057 32.5643 48.3508 32.589 48.2756 32.6281L47.7403 32.9076L48.4537 34.2742L49.3178 33.823C49.3929 33.7839 49.4452 33.7545 49.475 33.735C49.503 33.7125 49.5177 33.6908 49.5189 33.6703C49.5215 33.645 49.5178 33.611 49.5076 33.5686L49.3858 32.9689Z" fill="#FFA42B"/>
<path d="M52.5799 30.9748L52.7037 30.8936L53.2027 31.6562L51.0077 33.0911L50.9267 32.9669L51.1503 32.7764C51.1936 32.7397 51.214 32.7095 51.2112 32.686C51.2066 32.6595 51.1714 32.5959 51.1057 32.4955L49.6216 30.2253C49.5558 30.1249 49.5128 30.0686 49.4923 30.0566C49.4699 30.0417 49.4332 30.0468 49.382 30.0718L49.1178 30.2002L49.0367 30.0761L51.1871 28.6702L51.6857 29.4329L51.5615 29.514L51.0979 29.1146C51.0658 29.085 51.039 29.0666 51.0176 29.0595C50.9971 29.0476 50.9711 29.0498 50.9396 29.0662C50.9063 29.0796 50.854 29.1095 50.7831 29.1559L50.0116 29.6602L50.8348 30.9195L51.3403 30.589C51.4112 30.5426 51.4605 30.5082 51.4882 30.486C51.5138 30.4607 51.5263 30.4379 51.5255 30.4173C51.5257 30.3918 51.5187 30.3585 51.5043 30.3172L51.3671 29.8943L51.4912 29.8131L52.2131 30.9171L52.0888 30.9983L51.7565 30.7029C51.7245 30.6732 51.6977 30.6549 51.6762 30.6478C51.6557 30.6359 51.6298 30.6381 51.5983 30.6545C51.5648 30.6679 51.5127 30.6977 51.4417 30.7441L50.9363 31.0746L51.7797 32.3649L52.5956 31.8315C52.6664 31.7851 52.7158 31.7508 52.7432 31.7285C52.769 31.7032 52.7816 31.6803 52.7806 31.6598C52.7811 31.6343 52.7743 31.601 52.7595 31.5597L52.5799 30.9748Z" fill="#FFA42B"/>
<path d="M55.4842 28.7472L55.6005 28.6548L56.1679 29.3674L54.2 30.9353L54.1079 30.8193L54.3127 30.6087C54.3521 30.568 54.3695 30.5361 54.3648 30.5128C54.3574 30.4869 54.3169 30.427 54.2416 30.333L52.5518 28.2118C52.477 28.1179 52.4289 28.0659 52.4073 28.056C52.3837 28.0432 52.3474 28.0518 52.2989 28.0814L52.0479 28.2339L51.9554 28.1179L53.0905 27.2135L53.1832 27.3295L52.9784 27.5401C52.9384 27.5808 52.9221 27.6141 52.9295 27.6401C52.9342 27.6632 52.9742 27.7218 53.049 27.8158L54.9005 30.14L55.58 29.5987C55.6463 29.5458 55.6921 29.5071 55.7179 29.4823C55.7411 29.4548 55.7511 29.4308 55.7484 29.4103C55.7463 29.385 55.7363 29.3524 55.7179 29.3127L55.4842 28.7472Z" fill="#FFA42B"/>
<path d="M32.8649 12.6487C32.8649 13.7234 31.5676 15.4054 30.9189 15.4054C30.054 15.4054 28.6487 13.7234 28.6487 12.6487C28.6487 11.574 29.5925 10.7028 30.7568 10.7028C31.9211 10.7028 32.8649 11.574 32.8649 12.6487Z" fill="#FFA42B"/>
<path d="M16.614 1.76199V0.574097H19.3302L20.1414 1.43604V2.73258L19.8445 3.00058L20.1414 3.29031V4.60134L19.2505 5.40535H16.614V4.21745H16.9327V1.76199H16.614ZM16.9979 4.5434V5.0794H19.055L19.7575 4.43474V3.39172L19.3664 2.9861L19.7575 2.61669V1.58815L19.1129 0.900044H16.9979V1.43604H17.3166V4.5434H16.9979ZM17.9468 4.5434V3.15269H18.8087L19.1274 3.47864V4.29712L18.8594 4.5434H17.9468ZM17.9468 2.73983V1.43604H18.8739L19.1274 1.71853V2.47183L18.8522 2.73983H17.9468ZM18.3306 2.40664H18.7435V1.76199H18.3306V2.40664ZM18.3306 4.21745H18.7435V3.47864H18.3306V4.21745ZM23.4201 2.1314V1.76199H22.7971V2.33421H24.0285V3.40621H22.7971V4.21745H23.4201V3.6235H24.6152V5.40535H21.0805V4.21745H21.3992V1.76199H21.0805V0.574097H24.5717V2.1314H23.4201ZM21.4644 4.5434V5.0794H24.2313V3.94945H23.7532V4.5434H22.4132V3.08026H23.6446V2.66015H22.4132V1.43604H23.7532V1.80545H24.1878V0.900044H21.4644V1.43604H21.7831V4.5434H21.4644ZM27.5026 4.21745V5.40535H25.547V4.21745H25.8656V1.76199H25.547V0.574097H28.2197L29.1034 1.49399V2.81226L28.5964 3.31929L29.0382 4.21745H29.4945V5.40535H28.2197L27.3505 3.6235H27.2636V4.21745H27.5026ZM25.9309 4.5434V5.0794H27.1694V4.5434H26.8797V3.29755H27.5606L28.437 5.0794H29.1106V4.5434H28.7702L28.1255 3.24685L28.7195 2.65291V1.63885L28.0096 0.900044H25.9309V1.43604H26.2495V4.5434H25.9309ZM26.8797 2.83399V1.43604H27.7706L28.0893 1.75474V2.52977L27.7706 2.83399H26.8797ZM27.2636 2.50804H27.7054V1.76199H27.2636V2.50804ZM32.2372 4.21745V5.40535H30.3105V4.21745H30.6292V1.76199H30.3105V0.574097H32.2372V1.76199H32.0272V2.15312L32.5776 1.63161V0.574097H34.5044V1.76199H34.0263L32.9833 2.70361L34.0915 4.21745H34.5985V5.40535H32.7588V4.35507L32.1286 3.48588L32.0272 3.59453V4.21745H32.2372ZM30.6944 4.5434V5.0794H31.9041V4.5434H31.6433V3.47864L32.1721 2.97885L33.3165 4.5434H33.092V5.0794H34.2146V4.5434H33.9176L32.5342 2.66015L33.8742 1.43604H34.1205V0.900044H32.9109V1.43604H33.2295L31.6433 2.89193V1.43604H31.9041V0.900044H30.6944V1.43604H31.0131V4.5434H30.6944ZM35.1739 5.40535V4.21745H35.5433L36.7964 0.574097H38.0929L39.2373 4.21745H39.5923V5.40535H37.6438V4.21745H37.9481L37.8466 3.8915H36.8978L36.7964 4.21745H37.0861V5.40535H35.1739ZM35.5578 5.0794H36.7529V4.5434H36.3835L36.7239 3.56555H38.0277L38.3392 4.5434H37.977V5.0794H39.1794V4.5434H38.9476L37.796 0.900044H37.0789L35.8258 4.5434H35.5578V5.0794ZM36.8543 3.18891L37.4048 1.5954L37.9118 3.18891H36.8543ZM37.2092 2.92815H37.5424L37.3903 2.43561L37.2092 2.92815ZM42.2519 4.21745V5.40535H40.347V4.21745H40.6656V1.76199H40.347V0.574097H42.2519V1.76199H42.0636V2.29799H42.7517V1.76199H42.5634V0.574097H44.4684V1.76199H44.1496V4.21745H44.4684V5.40535H42.5634V4.21745H42.7517V3.42069H42.0636V4.21745H42.2519ZM40.7309 4.5434V5.0794H41.9188V4.5434H41.6797V3.09474H43.1356V4.5434H42.8966V5.0794H44.0845V4.5434H43.7658V1.43604H44.0845V0.900044H42.8966V1.43604H43.1356V2.62393H41.6797V1.43604H41.9188V0.900044H40.7309V1.43604H41.0495V4.5434H40.7309Z" fill="#FFA42B"/>
</g>
</svg>
