<svg width="683" height="337" viewBox="0 0 683 337" fill="none" xmlns="http://www.w3.org/2000/svg">
<path d="M80 104H103.5C103.5 104 136.345 88.1681 161 80C179.5 73.8711 196.876 69.1019 216 65C239.98 59.8567 253.659 58.0021 278 55C296.493 52.7192 306.881 51.2128 325.5 50.5C338.183 50.0145 351.5 50.5 358 50.5C367.712 50.5 371.765 57.5026 378.5 64.5C386.681 72.9994 392 90.5 392 90.5C392 90.5 396.159 74.1723 403.5 65.5C409.238 58.7209 410.101 55.5522 416.5 52C416.5 52 438.161 53.567 452 55C466.286 56.4793 488.5 59.5 488.5 59.5L523 67C536.473 69.9289 564 77.5 564 77.5C564 77.5 539.444 65.4487 523 59.5C506.379 53.4872 496.58 51.5471 479.5 47C466.274 43.4791 458.931 41.134 445.5 38.5C431.951 35.8427 410.5 33.5 410.5 33.5C405.312 30.3265 405.241 28.2946 401.5 23.5C395.522 15.8382 392 0.5 392 0.5C392 0.5 387.968 15.8679 382.5 23.5C378.958 28.4435 379.581 32 373.5 32C367.5 32 354.049 31.2411 341.5 30.5C314.177 28.8865 298.781 31.7858 271.5 34C254.09 35.413 227 38.5 227 38.5C227 38.5 193.685 43.1006 172.5 47C155.439 50.1403 145.792 51.6456 129 56C110.35 60.8361 99.8211 63.6776 82 71C68.3487 76.6091 60.5271 79.6966 48 87.5C36.0658 94.934 28.6724 98.8437 19.5 109.5C12.1813 118.003 8.26268 123.431 4.5 134C1.69997 141.865 0.5 146.652 0.5 155C0.5 163.348 1.42682 168.238 4.5 176C8.26867 185.519 12.7453 189.807 19.5 197.5C25.333 204.144 36 213 36 213C36 213 48.6741 221.725 57 227C64.3265 231.642 68.1714 234.767 76 238.5C87.2604 243.87 106.5 248 106.5 248C106.5 248 97.2231 242.415 91.5 238.5C85.2789 234.245 81.8532 231.749 76 227C71.3782 223.25 68.6233 221.292 64.5 217C59.3861 211.677 56.3287 208.588 53 202C50.0478 196.157 49.0493 192.462 48 186C46.8106 178.676 46.9055 174.339 48 167C49.0208 160.156 50.0174 156.244 53 150C56.3165 143.056 64.5 134 64.5 134V119.5C64.5 113.009 73.5092 104 80 104Z" fill="#FFA42B"/>
<path d="M624.5 105H606.5C606.5 105 598.093 98.5747 592.5 94.75C586.956 90.9587 578 85.5 578 85.5C578 85.5 592.823 90.3877 602 94C611.177 97.6123 624.5 105 624.5 105Z" fill="#FFA42B"/>
<path d="M633.5 116.5C632.36 113.382 629.5 109 629.5 109C629.5 109 639.873 114.94 646 119.5C651.777 123.799 654.803 126.516 660 131.5C665.385 136.664 668.889 139.274 673 145.5C678.415 153.701 680.935 159.231 682 169C683.274 180.687 680.325 187.568 676 198.5C671.118 210.839 666.625 217.366 657.5 227C643.359 241.929 631.581 247.191 613 256C595.633 264.233 584.245 266.957 566 273C545.987 279.629 534.628 281.149 514 285.5C488.951 290.783 474.568 293.486 449 296.5C420.247 299.889 375 301 375 301H317C317 301 310.765 306.069 307.5 310C300.242 318.739 295.5 336.5 295.5 336.5C295.5 336.5 288.098 314.886 277.5 306C268.521 298.471 261.208 297.418 250 294C238.055 290.358 230.738 290.983 218.5 288.5C200.77 284.903 190.666 283.211 173.5 277.5C154.499 271.179 124.5 258 124.5 258C124.5 258 171.125 270.556 200.5 275.5C215.833 278.08 224.532 278.913 240 280.5C254.615 281.999 277.5 283.5 277.5 283.5C277.5 283.5 285.36 274.28 289 267.5C292.276 261.398 294 251 294 251C294 251 297.027 261.519 300 267.5C303.639 274.821 313.5 283.5 313.5 283.5C313.5 283.5 331.497 284.129 343 283.5C353.981 282.9 366.842 282.393 382 280.5C392.002 279.251 397.528 277.972 407.5 276.5C423.673 274.113 432.878 273.712 449 271C465.314 268.255 474.367 266.16 490.5 262.5C504.817 259.252 512.979 257.854 527 253.5C533.9 251.357 537.737 250.042 544.5 247.5C553.02 244.297 557.761 242.369 566 238.5L566.408 238.308C573.112 235.16 577.012 233.329 583.5 229.5C588.724 226.417 596.5 221 596.5 221H615.5L620.5 215.5L623 212L624.5 195C624.5 195 627.898 191.921 629.5 189.5C632.846 184.445 632.143 180.409 633.5 174.5C635.188 167.146 637.075 163.044 637 155.5C636.929 148.339 634.233 144.623 633.5 137.5C632.66 129.342 636.316 124.202 633.5 116.5Z" fill="#FFA42B"/>
<path d="M183.396 241.721L174.3 242.885L173.853 247.292L167.639 248.087L170.734 223.064L177.608 222.185L192.149 244.951L185.865 245.755L183.396 241.721ZM180.793 237.423L175.677 229.062L174.787 238.192L180.793 237.423Z" fill="#FFA42B"/>
<path d="M200.794 239.553L208.587 238.7L209.514 243.226L195.771 244.73L190.841 220.66L196.791 220.009L200.794 239.553Z" fill="#FFA42B"/>
<path d="M216.246 218.076L218.724 232.565C218.972 234.014 219.523 235.097 220.377 235.813C221.231 236.529 222.355 236.824 223.75 236.696C225.144 236.569 226.146 236.08 226.756 235.23C227.365 234.38 227.546 233.231 227.299 231.782L224.82 217.292L230.78 216.748L233.253 231.203C233.623 233.365 233.471 235.236 232.797 236.815C232.123 238.395 231.061 239.637 229.611 240.54C228.184 241.442 226.506 241.98 224.577 242.157C222.649 242.333 220.855 242.123 219.195 241.527C217.555 240.906 216.166 239.889 215.027 238.474C213.884 237.037 213.128 235.237 212.758 233.076L210.286 218.62L216.246 218.076Z" fill="#FFA42B"/>
<path d="M264.874 214.391L267.974 238.765L262.003 239.17L260.143 224.553L256.52 239.543L251.701 239.87L244.32 225.593L246.184 240.245L240.213 240.651L237.113 216.277L244.166 215.798L253.192 232.205L257.855 214.868L264.874 214.391Z" fill="#FFA42B"/>
<path d="M276.84 213.893L278.064 228.542C278.187 230.007 278.642 231.118 279.431 231.876C280.22 232.635 281.313 232.983 282.712 232.92C284.111 232.858 285.15 232.415 285.83 231.591C286.509 230.767 286.788 229.622 286.666 228.158L285.441 213.509L291.42 213.242L292.642 227.856C292.825 230.041 292.513 231.911 291.707 233.464C290.901 235.017 289.737 236.212 288.216 237.05C286.719 237.888 285.002 238.349 283.068 238.436C281.133 238.522 279.365 238.228 277.765 237.552C276.185 236.853 274.89 235.767 273.877 234.295C272.863 232.8 272.265 230.96 272.082 228.774L270.861 214.16L276.84 213.893Z" fill="#FFA42B"/>
<path d="M320.853 237.091L314.869 237.231L304.196 222.326L304.862 237.467L298.879 237.607L297.799 213.061L303.782 212.92L314.459 227.895L313.789 212.685L319.773 212.544L320.853 237.091Z" fill="#FFA42B"/>
<path d="M332.33 212.485L332.659 237.053L326.674 237.095L326.346 212.528L332.33 212.485Z" fill="#FFA42B"/>
<path d="M346.638 212.497L346.404 227.195C346.381 228.665 346.724 229.799 347.435 230.599C348.146 231.398 349.201 231.804 350.601 231.816C352.001 231.828 353.08 231.44 353.84 230.653C354.599 229.866 354.99 228.738 355.014 227.268L355.248 212.57L361.232 212.621L360.999 227.284C360.964 229.477 360.468 231.328 359.511 232.837C358.553 234.345 357.275 235.478 355.676 236.234C354.101 236.991 352.344 237.361 350.408 237.344C348.471 237.328 346.739 236.94 345.211 236.18C343.707 235.397 342.523 234.244 341.661 232.72C340.798 231.172 340.385 229.302 340.42 227.109L340.653 212.446L346.638 212.497Z" fill="#FFA42B"/>
<path d="M395.482 213.613L394.028 238.139L388.046 237.95L388.918 223.241L382.554 237.776L377.726 237.622L373.073 222.703L372.199 237.447L366.217 237.257L367.671 212.73L374.737 212.955L380.622 230.153L388.45 213.39L395.482 213.613Z" fill="#FFA42B"/>
<path d="M419.182 239.739C417.389 239.627 415.816 239.236 414.463 238.567C413.111 237.899 412.071 236.97 411.343 235.78C410.638 234.592 410.356 233.197 410.497 231.595L416.855 231.994C416.842 232.904 417.074 233.619 417.553 234.139C418.034 234.636 418.705 234.912 419.567 234.966C420.452 235.022 421.174 234.869 421.732 234.507C422.294 234.122 422.617 233.57 422.701 232.852C422.772 232.249 422.621 231.738 422.248 231.318C421.898 230.899 421.436 230.543 420.86 230.25C420.308 229.958 419.504 229.616 418.447 229.223C416.921 228.637 415.686 228.069 414.742 227.519C413.798 226.97 413.02 226.197 412.41 225.202C411.8 224.206 411.585 222.944 411.765 221.415C412.032 219.144 413.067 217.423 414.87 216.252C416.676 215.058 418.906 214.544 421.561 214.711C424.262 214.881 426.363 215.666 427.864 217.068C429.368 218.446 430.043 220.286 429.89 222.588L423.427 222.182C423.474 221.391 423.255 220.759 422.771 220.285C422.29 219.788 421.63 219.513 420.792 219.46C420.07 219.415 419.464 219.575 418.976 219.941C418.489 220.284 418.204 220.815 418.12 221.534C418.027 222.321 418.328 222.959 419.021 223.446C419.714 223.933 420.823 224.481 422.347 225.091C423.867 225.723 425.088 226.313 426.009 226.861C426.953 227.411 427.732 228.172 428.345 229.144C428.958 230.116 429.178 231.333 429.007 232.793C428.843 234.183 428.334 235.423 427.479 236.513C426.646 237.605 425.516 238.444 424.086 239.032C422.656 239.619 421.022 239.855 419.182 239.739Z" fill="#FFA42B"/>
<path d="M454.904 217.533L454.185 222.274L447.696 221.748L444.731 241.299L438.766 240.816L441.731 221.265L435.242 220.739L435.961 215.998L454.904 217.533Z" fill="#FFA42B"/>
<path d="M465.502 223.331L464.602 228.219L472.579 229.003L471.743 233.547L463.766 232.763L462.791 238.064L471.812 238.951L470.945 243.666L455.967 242.194L460.413 218.03L475.391 219.502L474.523 224.218L465.502 223.331Z" fill="#FFA42B"/>
<path d="M486.65 225.531L485.604 230.389L493.567 231.305L492.595 235.821L484.632 234.906L483.498 240.175L492.503 241.211L491.494 245.898L476.543 244.179L481.713 220.159L496.665 221.879L495.656 226.566L486.65 225.531Z" fill="#FFA42B"/>
<path d="M504.112 242.788L511.885 243.807L510.784 248.294L497.076 246.497L502.932 222.635L508.866 223.413L504.112 242.788Z" fill="#FFA42B"/>
<path d="M118.916 109.499C122.62 109.111 126.147 109.791 129.61 111.227C132.942 112.826 135.748 115.079 138.029 117.986C140.179 121.057 141.605 124.353 142.027 128.054L143.886 144.339C144.612 150.704 142.502 155.869 137.869 159.949C142.835 162.725 145.861 166.902 147.095 172.466L149.122 190.231C149.562 194.08 148.913 197.593 147.489 200.888C145.934 204.346 143.702 207.127 140.793 209.229C137.752 211.494 134.445 212.739 130.741 213.126L84.2085 217.994L72.3835 114.366L118.916 109.499ZM119.89 150.893L117.779 132.388L99.4028 134.311L101.514 152.816L119.89 150.893ZM124.468 191.012L122.357 172.507L103.981 174.429L106.092 192.934L124.468 191.012Z" fill="#FFA42B"/>
<path d="M170.114 104.849L228.104 101.108L229.731 124.145L197.019 126.256L198.289 144.24L228.771 142.273L230.324 164.271L199.843 166.237L201.113 184.221L233.825 182.111L235.452 205.148L177.463 208.89L170.114 104.849Z" fill="#FFA42B"/>
<path d="M303.445 98.5521C307.169 98.4596 310.623 99.4171 313.949 101.123C317.129 102.982 319.73 105.451 321.752 108.531C323.628 111.763 324.764 115.163 324.865 118.886L325.311 135.27C325.485 141.675 322.937 146.657 317.97 150.357C322.677 153.519 325.331 157.925 326.08 163.57L327.133 202.296L302.258 202.913L301.197 163.89L283.322 164.334L284.383 203.357L259.508 203.975L256.673 99.7137L303.445 98.5521ZM300.577 141.101L300.051 121.738L282.176 122.182L282.703 141.545L300.577 141.101Z" fill="#FFA42B"/>
<path d="M380.057 98.2955L379.275 138.965L397.152 139.279L397.935 98.6096L422.814 99.0467L422.126 134.8C422.069 137.78 421.421 140.451 420.33 142.965C419.086 145.625 417.554 147.834 415.582 149.587C417.482 151.558 418.929 153.819 420.072 156.372C421.063 159.072 421.607 161.764 421.553 164.595L420.808 203.327L395.929 202.89L396.711 162.221L378.834 161.907L378.052 202.576L353.172 202.139L355.178 97.8583L380.057 98.2955Z" fill="#FFA42B"/>
<path d="M456.905 110.778C458.897 107.764 461.593 105.39 464.993 103.655C468.234 102.06 471.724 101.226 475.591 101.46L501.469 103.026C505.188 103.251 508.539 104.499 511.693 106.481C514.688 108.603 517.049 111.283 518.776 114.523C520.344 117.901 521.159 121.384 520.912 125.101L515.396 208.358L490.559 206.855L492.519 177.269L474.672 176.189L472.712 205.775L447.874 204.272L453.39 121.014C453.636 117.298 454.755 113.932 456.905 110.778ZM494.046 154.225L495.888 126.422L478.04 125.342L476.198 153.144L494.046 154.225Z" fill="#FFA42B"/>
<path d="M555.219 106.88L579.969 109.453L575.403 149.573L593.187 151.422L597.753 111.302L622.502 113.874L610.71 217.506L585.96 214.933L590.526 174.813L572.742 172.964L568.176 213.084L543.426 210.512L555.219 106.88Z" fill="#FFA42B"/>
</svg>
