<svg width="567" height="370" viewBox="0 0 567 370" fill="none" xmlns="http://www.w3.org/2000/svg">
<path d="M192.5 99.5C175.303 89.9576 164.623 86.6393 146.5 79C116.258 66.2523 98.2192 61.8004 67.9998 49C54.2351 43.1695 46.4992 39.9211 32.9998 33.5C20.1458 27.3858 0.49983 17 0.49983 17C0.49983 17 0.0496252 18.5056 -0.000170205 19.5C-0.0902054 21.298 0.54453 22.2583 0.99983 24C2.26565 28.8422 3.09267 31.6119 5.49983 36C7.58502 39.8012 8.29162 41.6145 11 45C15 50 19.5797 54.2422 25.5 59C28.8795 61.7159 31 63 34.5 65.5C38.9998 68.7142 68 80 68 80C68 80 79.1955 84.2009 86.4998 86.5C100.504 90.9078 123 95.5 123 95.5L158 105.5L137.5 104L97.9998 96.5L71.9998 90L59.4998 86.5C59.4998 86.5 43.5 82 38.9998 80.5C37.5891 80.0298 36.9336 79.3947 35.4998 79C33.982 78.5822 31.4998 78.5 31.4998 78.5L29.4998 80.5C28.2041 82.6915 29.3867 84.529 29.9998 87C30.5063 89.0411 31.0941 90.102 31.9998 92C32.8656 93.8144 34.4998 96.5 34.4998 96.5C34.4998 96.5 37.191 99.2021 38.9998 100.5C43.1809 103.5 50.9998 107 50.9998 107C50.9998 107 58.8309 110.035 63.9998 111.5C69.196 112.972 77.4998 114.5 77.4998 114.5L88.9998 116.5L118 119.5L156.5 121.5L173.5 123.5L162 126L150.5 127.5L134 128.5H119L84.4998 128L66.4998 127.5C65.4816 128.009 63.9998 129 63.9998 129C63.9998 129 63.7424 131.158 63.9998 132.5C64.5302 135.266 66.0235 136.494 67.9998 138.5C70.7026 141.243 76.4998 143.5 76.4998 143.5L83.4998 145L93.4998 145.5H105.5L123 145L138.5 143C138.5 143 145.831 141.714 150.5 141C155.8 140.189 164 138.5 164 138.5L179.5 136L188 133.5L194 133L195.5 134.5L187.5 138.5L173.5 144.5L142 154L129 157L118 159.5L109 162.5L107.5 163.5C107.5 163.5 109.627 164.73 111 165.5C113.133 166.697 114.235 167.576 116.5 168.5C119.657 169.788 125 170.5 125 170.5L129.5 171.5L136 172L143.5 171.5L153.5 169L163 166L169 163.5L175.5 160.5L182.5 157.5L189.5 154L194 152L200.5 150L204 149.5H205.5L202 153L196.5 157.5L191 160.5L184 164.5L176.5 170L167 174L160 177.5L153.5 180.5L149.5 182.5C149.5 182.5 147.151 183.452 147.5 184.5C147.776 185.328 148.69 185.174 149.5 185.5C151.525 186.316 152.839 186.192 155 186.5L155.238 186.534C156.843 186.763 157.816 186.902 159.5 187C161.449 187.113 162.547 187 164.5 187C165.867 187 166.64 187.138 168 187C170.642 186.732 174.5 185 174.5 185L184 180.5L193 175L199.5 170.5L204 166.5H205L200 172L206.5 167C206.5 167 201.558 173.311 198 177C194.245 180.892 191.858 182.876 187.778 186.269L187.5 186.5C185.577 188.099 184.433 188.914 182.5 190.5C181.321 191.467 179.5 193 179.5 193C179.4 193.799 179.616 194.293 180 195C180.597 196.099 181.472 196.288 182.5 197C183.794 197.897 184.471 198.624 186 199C187.327 199.326 188.153 199.236 189.5 199C191.394 198.668 192.341 197.972 194 197C195.685 196.013 196.483 195.23 198 194C200.254 192.172 201.475 191.08 203.5 189C205.82 186.618 207.163 185.272 209 182.5C210.351 180.461 210.707 179.077 212 177C214.352 173.22 219 168 219 168L219.5 168.5L217 171.5L215.5 175H216.5L218.5 171C218.5 171 218.371 173.47 218 175C217.606 176.621 217.192 177.482 216.5 179C215.263 181.712 214.057 182.959 212.5 185.5C209.752 189.983 208.428 192.634 205.5 197C204.172 198.979 203.038 199.855 202 202C201.542 202.946 201 203.448 201 204.5C201 205.552 201.261 206.252 202 207C202.613 207.621 203.144 207.828 204 208C205.164 208.235 205.835 208.121 207 208C208.602 207.834 210 207.5 211 207C212 206.5 213.328 205.476 214.5 204.5C215.672 203.524 215.623 203.067 216.5 202C217.394 200.912 218.5 199 218.5 199L221 195C221 195 221.826 193.236 222.5 192C223.211 190.694 223.312 189.819 224 188.5C224.976 186.627 227 184 227 184C227 184 227.165 187.967 227 190.5C226.885 192.264 226.752 193.25 226.5 195C226.33 196.176 226.297 196.85 226 198C225.422 200.24 224.961 201.296 224.054 203.375L224 203.5C222.985 205.827 222.019 207.087 221 209.5C220.351 211.037 219.689 211.842 219.5 213.5C219.5 213.5 219.197 214.78 219.5 215.5C220.125 216.984 221.928 216.849 223.5 216.5C224.611 216.253 225.087 215.68 226 215C227.284 214.044 227.893 213.319 228.894 212.126L229 212C230.358 210.383 230.611 209.091 232 207.5C232.726 206.668 234 205.5 234 205.5C234 205.5 234.66 212.255 234 216.5C233.723 218.279 233.45 219.257 233 221C232.49 222.974 231.774 223.98 231.5 226C231.264 227.741 230.808 228.885 231.5 230.5C232.152 232.023 232.846 233.407 234.5 233.5C235.55 233.559 236.582 233.512 237.5 233C238.832 232.257 239.301 231.355 240 230C240.738 228.569 240.784 227.596 241 226C241.261 224.065 241 222.953 241 221C241 220.024 240.649 219.411 241 218.5C241.396 217.469 242 216 242 216C242 216 244.804 217.099 246 218.5C247.939 220.772 247.199 223.028 247.5 226C247.815 229.108 248.092 230.932 247.5 234C246.722 238.031 242.75 241.5 243 243.5C243.5 247.5 251 266.5 252 269.5C252.611 271.334 253.573 273.148 255.5 273C257.295 272.862 257.475 270.98 258.5 269.5C261.419 265.287 262.5 257 262.5 257C262.5 257 265.418 245.812 266.5 238.5C267.503 231.715 267.502 227.841 268 221C268.468 214.562 269 204.5 269 204.5L268 191.5C268 191.5 266.671 182.836 265 177.5C263.092 171.407 261.381 168.197 258.5 162.5C255.22 156.015 253.15 152.465 249 146.5C241.107 135.158 235.522 129.456 225 120.5C213.493 110.705 205.713 106.832 192.5 99.5Z" fill="#FFA42B"/>
<path d="M374.5 101.5C391.697 91.9576 402.377 88.6393 420.5 81C450.742 68.2523 468.781 63.8004 499 51C512.765 45.1695 520.501 41.9211 534 35.5C546.854 29.3858 566.5 19 566.5 19C566.5 19 566.95 20.5056 567 21.5C567.09 23.298 566.455 24.2583 566 26C564.734 30.8422 563.907 33.6119 561.5 38C559.415 41.8012 558.708 43.6145 556 47C552 52 547.42 56.2422 541.5 61C538.12 63.7159 536 65 532.5 67.5C528 70.7142 499 82 499 82C499 82 487.804 86.2009 480.5 88.5C466.496 92.9078 444 97.5 444 97.5L409 107.5L429.5 106L469 98.5L495 92L507.5 88.5C507.5 88.5 523.5 84 528 82.5C529.411 82.0298 530.066 81.3947 531.5 81C533.018 80.5822 535.5 80.5 535.5 80.5L537.5 82.5C538.796 84.6915 537.613 86.529 537 89C536.493 91.0411 535.906 92.102 535 94C534.134 95.8144 532.5 98.5 532.5 98.5C532.5 98.5 529.809 101.202 528 102.5C523.819 105.5 516 109 516 109C516 109 508.169 112.035 503 113.5C497.804 114.972 489.5 116.5 489.5 116.5L478 118.5L449 121.5L410.5 123.5L393.5 125.5L405 128L416.5 129.5L433 130.5H448L482.5 130L500.5 129.5C501.518 130.009 503 131 503 131C503 131 503.257 133.158 503 134.5C502.47 137.266 500.976 138.494 499 140.5C496.297 143.243 490.5 145.5 490.5 145.5L483.5 147L473.5 147.5H461.5L444 147L428.5 145C428.5 145 421.168 143.714 416.5 143C411.2 142.189 403 140.5 403 140.5L387.5 138L379 135.5L373 135L371.5 136.5L379.5 140.5L393.5 146.5L425 156L438 159L449 161.5L458 164.5L459.5 165.5C459.5 165.5 457.373 166.73 456 167.5C453.866 168.697 452.765 169.576 450.5 170.5C447.343 171.788 442 172.5 442 172.5L437.5 173.5L431 174L423.5 173.5L413.5 171L404 168L398 165.5L391.5 162.5L384.5 159.5L377.5 156L373 154L366.5 152L363 151.5H361.5L365 155L370.5 159.5L376 162.5L383 166.5L390.5 172L400 176L407 179.5L413.5 182.5L417.5 184.5C417.5 184.5 419.849 185.452 419.5 186.5C419.224 187.328 418.31 187.174 417.5 187.5C415.475 188.316 414.161 188.192 412 188.5L411.761 188.534C410.157 188.763 409.183 188.902 407.5 189C405.551 189.113 404.453 189 402.5 189C401.133 189 400.36 189.138 399 189C396.358 188.732 392.5 187 392.5 187L383 182.5L374 177L367.5 172.5L363 168.5H362L367 174L360.5 169C360.5 169 365.441 175.311 369 179C372.755 182.892 375.141 184.876 379.222 188.269L379.5 188.5C381.423 190.099 382.567 190.914 384.5 192.5C385.679 193.467 387.5 195 387.5 195C387.6 195.799 387.384 196.293 387 197C386.403 198.099 385.528 198.288 384.5 199C383.206 199.897 382.529 200.624 381 201C379.673 201.326 378.846 201.236 377.5 201C375.606 200.668 374.659 199.972 373 199C371.315 198.013 370.516 197.23 369 196C366.745 194.172 365.525 193.08 363.5 191C361.18 188.618 359.837 187.272 358 184.5C356.648 182.461 356.293 181.077 355 179C352.647 175.22 348 170 348 170L347.5 170.5L350 173.5L351.5 177H350.5L348.5 173C348.5 173 348.629 175.47 349 177C349.393 178.621 349.808 179.482 350.5 181C351.737 183.712 352.942 184.959 354.5 187.5C357.248 191.983 358.571 194.634 361.5 199C362.828 200.979 363.961 201.855 365 204C365.458 204.946 366 205.448 366 206.5C366 207.552 365.739 208.252 365 209C364.386 209.621 363.856 209.828 363 210C361.836 210.235 361.165 210.121 360 210C358.398 209.834 357 209.5 356 209C355 208.5 353.671 207.476 352.5 206.5C351.328 205.524 351.376 205.067 350.5 204C349.606 202.912 348.5 201 348.5 201L346 197C346 197 345.174 195.236 344.5 194C343.788 192.694 343.687 191.819 343 190.5C342.024 188.627 340 186 340 186C340 186 339.834 189.967 340 192.5C340.115 194.264 340.248 195.25 340.5 197C340.67 198.176 340.703 198.85 341 200C341.578 202.24 342.038 203.296 342.945 205.375L343 205.5C344.015 207.827 344.981 209.087 346 211.5C346.649 213.037 347.311 213.842 347.5 215.5C347.5 215.5 347.803 216.78 347.5 217.5C346.875 218.984 345.072 218.849 343.5 218.5C342.388 218.253 341.913 217.68 341 217C339.716 216.044 339.107 215.319 338.106 214.126L338 214C336.641 212.383 336.389 211.091 335 209.5C334.274 208.668 333 207.5 333 207.5C333 207.5 332.34 214.255 333 218.5C333.277 220.279 333.55 221.257 334 223C334.51 224.974 335.226 225.98 335.5 228C335.736 229.741 336.192 230.885 335.5 232.5C334.847 234.023 334.154 235.407 332.5 235.5C331.45 235.559 330.418 235.512 329.5 235C328.168 234.257 327.699 233.355 327 232C326.262 230.569 326.216 229.596 326 228C325.738 226.065 326 224.953 326 223C326 222.024 326.35 221.411 326 220.5C325.603 219.469 325 218 325 218C325 218 322.196 219.099 321 220.5C319.06 222.772 319.801 225.028 319.5 228C319.185 231.108 318.908 232.932 319.5 236C320.278 240.031 324.25 243.5 324 245.5C323.5 249.5 316 268.5 315 271.5C314.389 273.334 313.427 275.148 311.5 275C309.705 274.862 309.525 272.98 308.5 271.5C305.581 267.287 304.5 259 304.5 259C304.5 259 301.581 247.812 300.5 240.5C299.496 233.715 299.498 229.841 299 223C298.531 216.562 298 206.5 298 206.5L299 193.5C299 193.5 300.329 184.836 302 179.5C303.908 173.407 305.619 170.197 308.5 164.5C311.78 158.015 313.849 154.465 318 148.5C325.893 137.158 331.477 131.456 342 122.5C353.507 112.705 361.287 108.832 374.5 101.5Z" fill="#FFA42B"/>
<path d="M53.8479 275.331L53.0005 276.41L45.5629 270.569L46.4103 269.49L48.7417 270.884C49.0646 271.055 49.3105 271.165 49.4793 271.214C49.6683 271.238 49.915 271.162 50.2196 270.986C50.5241 270.81 50.9882 270.51 51.6119 270.086L77.0099 252.898L80.3241 255.501L69.6856 284.28C69.4216 284.986 69.2401 285.508 69.1411 285.846C69.0421 286.183 69.0266 286.441 69.0945 286.619C69.2083 286.791 69.3735 287.004 69.59 287.257L71.4977 289.192L70.6503 290.271L60.0142 281.918L60.8616 280.839L63.1929 282.233C63.6443 282.505 63.9434 282.574 64.0902 282.44C64.2828 282.3 64.5808 281.683 64.9842 280.587L67.2725 274.659L58.3705 267.668L53.1149 271.266C52.172 271.938 51.6427 272.374 51.5272 272.574C51.4318 272.748 51.5695 273.022 51.9402 273.396L53.8479 275.331ZM59.8922 266.682L67.9079 272.977L73.9863 257.066L59.8922 266.682Z" fill="#FFA42B"/>
<path d="M100.418 299.539L101.574 300.279L97.0311 307.378L77.4262 294.833L78.1657 293.678L80.6206 294.841C81.0961 295.068 81.4279 295.125 81.6161 295.013C81.8219 294.873 82.2241 294.335 82.8227 293.4L96.3448 272.268C96.9434 271.332 97.2543 270.755 97.2774 270.538C97.3181 270.292 97.1359 270.001 96.7309 269.664L94.6457 267.923L95.3852 266.767L106.694 274.004L105.955 275.159L103.5 273.996C103.024 273.769 102.684 273.725 102.478 273.865C102.29 273.978 101.896 274.501 101.298 275.437L86.4815 298.591L93.2503 302.923C93.9107 303.345 94.3872 303.631 94.68 303.779C94.9904 303.9 95.2309 303.919 95.4014 303.834C95.6171 303.739 95.8719 303.553 96.1657 303.276L100.418 299.539Z" fill="#FFA42B"/>
<path d="M137.852 292.969L138.474 291.746L146.949 296.05L146.328 297.274L143.77 296.359C143.274 296.181 142.931 296.171 142.74 296.331C142.564 296.461 142.224 297.021 141.721 298.012L133.623 313.958C131.848 317.453 129.766 319.712 127.378 320.734C125.035 321.742 122.348 321.477 119.319 319.938C115.795 318.148 113.443 315.745 112.264 312.728C111.085 309.711 111.413 306.397 113.247 302.785L121.013 287.494C121.516 286.504 121.768 285.899 121.769 285.68C121.786 285.432 121.576 285.16 121.139 284.865L118.892 283.339L119.513 282.116L131.483 288.196L130.862 289.419L128.304 288.504C127.808 288.326 127.465 288.316 127.274 288.476C127.098 288.606 126.759 289.167 126.256 290.157L118.334 305.754C116.678 309.016 116.077 311.678 116.531 313.741C116.986 315.804 118.32 317.397 120.533 318.521C122.689 319.616 124.711 319.782 126.6 319.02C128.504 318.228 130.248 316.274 131.831 313.158L139.974 297.124C140.477 296.134 140.729 295.529 140.73 295.31C140.746 295.062 140.536 294.79 140.1 294.495L137.852 292.969Z" fill="#FFA42B"/>
<path d="M177.431 341.759L176.963 343.048L164.343 338.467L164.811 337.177L167.461 337.774C167.975 337.891 168.311 337.874 168.47 337.723C168.64 337.542 168.915 336.929 169.294 335.885L177.889 312.211L160.798 333.009L155.87 331.22L156.145 304.473L147.6 328.009C147.221 329.053 147.039 329.7 147.053 329.948C147.078 330.166 147.325 330.394 147.794 330.634L150.21 331.876L149.742 333.166L140.807 329.922L141.275 328.632L143.925 329.229C144.439 329.346 144.775 329.33 144.934 329.179C145.104 328.997 145.379 328.384 145.758 327.34L154.319 303.758C154.698 302.715 154.875 302.084 154.85 301.866C154.836 301.618 154.594 301.374 154.125 301.134L151.709 299.892L152.177 298.602L161.896 302.13L161.629 329.141L178.891 308.3L188.333 311.728L187.865 313.018L185.215 312.421C184.701 312.304 184.359 312.336 184.189 312.518C184.03 312.668 183.761 313.266 183.382 314.31L174.821 337.892C174.442 338.936 174.259 339.582 174.273 339.83C174.299 340.048 174.546 340.277 175.015 340.516L177.431 341.759Z" fill="#FFA42B"/>
<path d="M194.777 314.513L195.116 313.184L208.128 316.492L207.79 317.821L205.093 317.49C204.57 317.424 204.233 317.49 204.082 317.688C203.939 317.854 203.73 318.475 203.457 319.551L197.275 343.866C197.002 344.942 196.884 345.603 196.923 345.849C196.97 346.063 197.238 346.266 197.729 346.458L200.256 347.455L199.918 348.784L186.906 345.476L187.244 344.147L189.94 344.478C190.463 344.544 190.796 344.494 190.939 344.328C191.091 344.13 191.303 343.493 191.577 342.417L197.758 318.102C198.032 317.026 198.145 316.381 198.099 316.167C198.06 315.921 197.795 315.702 197.305 315.51L194.777 314.513Z" fill="#FFA42B"/>
<path d="M235.362 323.026L235.584 321.672L244.965 323.207L244.743 324.561L242.028 324.464C241.502 324.444 241.172 324.539 241.038 324.749C240.91 324.927 240.756 325.564 240.577 326.66L235.859 355.48L233.2 355.045L220.146 323.465L216.118 348.078C215.938 349.174 215.879 349.843 215.938 350.085C216.003 350.294 216.289 350.473 216.794 350.622L219.398 351.396L219.176 352.75L209.795 351.214L210.017 349.86L212.732 349.957C213.258 349.977 213.586 349.898 213.714 349.721C213.848 349.511 214.004 348.858 214.184 347.762L218.236 323.003C218.415 321.907 218.473 321.254 218.407 321.045C218.348 320.804 218.065 320.608 217.56 320.46L214.956 319.686L215.177 318.332L224.897 319.923L235.516 345.444L238.642 326.343C238.822 325.247 238.879 324.594 238.814 324.385C238.754 324.144 238.472 323.948 237.966 323.8L235.362 323.026Z" fill="#FFA42B"/>
<path d="M251.378 324.987L251.482 323.619L264.869 324.632L264.766 326L262.053 326.139C261.527 326.165 261.206 326.288 261.091 326.508C260.979 326.696 260.88 327.344 260.797 328.452L258.904 353.468C258.82 354.576 258.818 355.247 258.899 355.483C258.982 355.685 259.281 355.839 259.797 355.944L262.459 356.489L262.355 357.857L248.968 356.844L249.071 355.476L251.784 355.337C252.31 355.312 252.63 355.205 252.742 355.017C252.857 354.796 252.957 354.132 253.04 353.025L254.933 328.008C255.017 326.901 255.018 326.245 254.935 326.043C254.854 325.807 254.556 325.637 254.04 325.533L251.378 324.987Z" fill="#FFA42B"/>
<path d="M292.627 326.371L292.611 324.999L302.117 324.893L302.132 326.265L299.441 326.638C298.919 326.709 298.611 326.859 298.515 327.089C298.419 327.286 298.378 327.94 298.39 329.051L298.59 346.935C298.634 350.854 297.834 353.82 296.191 355.831C294.579 357.809 292.075 358.817 288.678 358.855C284.726 358.899 281.529 357.857 279.087 355.728C276.646 353.6 275.403 350.51 275.357 346.459L275.166 329.311C275.153 328.2 275.097 327.547 274.997 327.352C274.896 327.125 274.584 326.981 274.061 326.922L271.362 326.609L271.347 325.237L284.772 325.087L284.787 326.459L282.096 326.832C281.574 326.903 281.266 327.054 281.17 327.283C281.074 327.48 281.033 328.134 281.045 329.245L281.241 346.737C281.282 350.395 281.981 353.033 283.339 354.652C284.696 356.27 286.616 357.065 289.099 357.037C291.516 357.01 293.386 356.222 294.708 354.672C296.029 353.089 296.671 350.55 296.631 347.054L296.43 329.073C296.418 327.962 296.362 327.309 296.261 327.114C296.161 326.887 295.849 326.743 295.325 326.684L292.627 326.371Z" fill="#FFA42B"/>
<path d="M350.291 351.306L350.473 352.666L337.165 354.444L336.983 353.084L339.609 352.387C340.118 352.253 340.409 352.083 340.48 351.876C340.547 351.636 340.507 350.966 340.36 349.865L337.023 324.901L331.497 351.247L326.301 351.942L314.167 328.104L317.484 352.922C317.631 354.023 317.768 354.68 317.896 354.894C318.019 355.075 318.344 355.164 318.87 355.159L321.587 355.142L321.769 356.502L312.347 357.761L312.165 356.402L314.791 355.705C315.3 355.571 315.59 355.4 315.662 355.193C315.728 354.953 315.688 354.283 315.541 353.182L312.218 328.315C312.07 327.214 311.935 326.573 311.812 326.392C311.685 326.178 311.358 326.073 310.831 326.078L308.114 326.095L307.933 324.735L318.18 323.365L330.444 347.433L336.102 320.97L346.059 319.639L346.24 320.999L343.615 321.696C343.105 321.83 342.817 322.017 342.75 322.257C342.679 322.464 342.717 323.118 342.864 324.219L346.188 349.086C346.335 350.187 346.472 350.844 346.6 351.058C346.723 351.239 347.048 351.327 347.574 351.323L350.291 351.306Z" fill="#FFA42B"/>
<path d="M386.928 342.077C388.805 341.515 390.223 340.613 391.181 339.371C392.161 338.089 392.365 336.493 391.794 334.584C391.372 333.176 390.598 332.129 389.472 331.443C388.378 330.748 386.673 330.406 384.357 330.417L379.598 330.41C377.211 330.409 375.184 329.788 373.517 328.548C371.872 327.268 370.688 325.422 369.967 323.013C369.489 321.417 369.404 319.823 369.711 318.23C370.05 316.628 370.844 315.18 372.093 313.885C373.374 312.581 375.172 311.583 377.488 310.889C380.022 310.13 382.213 309.986 384.058 310.456C385.895 310.895 387.346 311.757 388.412 313.04C389.479 314.324 390.108 315.857 390.301 317.641L385.198 320.243C384.828 317.182 383.939 315.01 382.531 313.727C381.155 312.434 379.435 312.097 377.369 312.715C375.773 313.193 374.631 314.046 373.942 315.276C373.284 316.496 373.217 317.982 373.742 319.734C374.173 321.174 374.959 322.319 376.101 323.171C377.274 324.013 378.904 324.446 380.991 324.469L385.75 324.476C388.334 324.453 390.432 324.967 392.043 326.019C393.644 327.04 394.815 328.787 395.555 331.259C396.08 333.011 396.146 334.714 395.754 336.365C395.384 337.977 394.507 339.433 393.123 340.733C391.762 341.994 389.876 342.984 387.466 343.706C385.714 344.231 383.98 344.477 382.266 344.445C380.542 344.381 378.97 343.914 377.55 343.043C376.161 342.163 375.021 340.749 374.131 338.799L376.938 336.731C377.694 338.687 378.601 340.12 379.658 341.031C380.737 341.902 381.89 342.392 383.116 342.502C384.374 342.603 385.644 342.461 386.928 342.077Z" fill="#FFA42B"/>
<path d="M394.572 306.129L419.553 296.017L422.716 303.83L421.444 304.344L417.95 299.891C417.7 299.534 417.483 299.305 417.301 299.202C417.136 299.057 416.897 299.031 416.582 299.123C416.267 299.216 415.746 299.409 415.019 299.703L410.432 301.56L420.745 327.041C421.162 328.07 421.459 328.672 421.636 328.848C421.8 328.993 422.137 328.997 422.646 328.862L425.272 328.168L425.787 329.44L413.342 334.478L412.827 333.206L415.197 331.877C415.657 331.62 415.895 331.383 415.913 331.164C415.918 330.915 415.712 330.276 415.295 329.247L404.981 303.766L400.394 305.623C399.697 305.905 399.189 306.128 398.868 306.293C398.577 306.446 398.423 306.632 398.406 306.85C398.376 307.039 398.381 307.354 398.419 307.797L399.006 313.427L397.735 313.941L394.572 306.129Z" fill="#FFA42B"/>
<path d="M456.818 304.963L458.034 304.328L461.934 311.8L440.433 323.024L439.798 321.808L442.028 320.257C442.461 319.957 442.676 319.697 442.672 319.478C442.653 319.23 442.387 318.614 441.873 317.629L430.263 295.389C429.749 294.405 429.403 293.848 429.225 293.72C429.033 293.563 428.689 293.576 428.196 293.76L425.648 294.703L425.013 293.487L446.08 282.489L449.98 289.96L448.764 290.595L444.857 286.499C444.589 286.197 444.359 286.004 444.168 285.919C443.99 285.791 443.749 285.788 443.444 285.91C443.124 286.003 442.617 286.231 441.922 286.594L434.364 290.54L440.804 302.876L445.756 300.291C446.451 299.928 446.935 299.657 447.21 299.477C447.469 299.268 447.605 299.068 447.616 298.878C447.641 298.644 447.606 298.33 447.512 297.937L446.631 293.92L447.847 293.285L453.493 304.101L452.277 304.736L449.485 301.716C449.216 301.414 448.986 301.221 448.795 301.137C448.617 301.008 448.376 301.005 448.072 301.127C447.752 301.22 447.244 301.449 446.549 301.811L441.597 304.396L448.196 317.037L456.189 312.864C456.884 312.502 457.368 312.23 457.643 312.05C457.902 311.841 458.038 311.641 458.049 311.451C458.074 311.217 458.039 310.903 457.945 310.51L456.818 304.963Z" fill="#FFA42B"/>
<path d="M486.363 286.517L487.511 285.766L492.123 292.82L471.821 306.093L471.071 304.944L473.139 303.182C473.54 302.842 473.729 302.563 473.703 302.345C473.66 302.1 473.335 301.512 472.727 300.583L458.999 279.584C458.391 278.655 457.993 278.135 457.803 278.024C457.596 277.886 457.256 277.933 456.783 278.164L454.339 279.352L453.589 278.204L473.48 265.199L478.092 272.254L476.943 273.004L472.655 269.31C472.358 269.036 472.11 268.866 471.912 268.8C471.722 268.69 471.482 268.711 471.191 268.862C470.882 268.986 470.399 269.263 469.743 269.692L462.607 274.357L470.221 286.005L474.897 282.948C475.553 282.519 476.009 282.201 476.265 281.995C476.502 281.762 476.617 281.55 476.61 281.36C476.612 281.124 476.547 280.816 476.414 280.434L475.145 276.522L476.293 275.771L482.97 285.983L481.821 286.734L478.747 284.002C478.451 283.727 478.203 283.558 478.004 283.492C477.815 283.382 477.575 283.402 477.283 283.554C476.974 283.678 476.492 283.954 475.835 284.383L471.16 287.44L478.962 299.375L486.509 294.441C487.165 294.012 487.621 293.695 487.876 293.489C488.114 293.255 488.229 293.043 488.222 292.853C488.224 292.617 488.159 292.309 488.026 291.927L486.363 286.517Z" fill="#FFA42B"/>
<path d="M513.23 265.912L514.303 265.057L519.555 271.649L501.351 286.152L500.496 285.079L502.39 283.131C502.758 282.754 502.919 282.459 502.874 282.244C502.808 282.004 502.429 281.45 501.737 280.581L486.104 260.959C485.412 260.091 484.967 259.61 484.768 259.518C484.549 259.4 484.214 259.479 483.765 259.753L481.443 261.164L480.588 260.091L491.089 251.725L491.944 252.798L490.05 254.746C489.682 255.123 489.531 255.431 489.597 255.671C489.642 255.885 490.011 256.427 490.703 257.296L507.832 278.795L514.117 273.788C514.73 273.299 515.154 272.941 515.39 272.712C515.604 272.457 515.699 272.235 515.674 272.046C515.654 271.812 515.56 271.51 515.393 271.143L513.23 265.912Z" fill="#FFA42B"/>
<path d="M304 117C304 126.941 292 142.5 286 142.5C278 142.5 265 126.941 265 117C265 107.059 273.73 99 284.5 99C295.27 99 304 107.059 304 117Z" fill="#FFA42B"/>
<path d="M153.68 16.299V5.311H178.805L186.309 13.284V25.277L183.562 27.756L186.309 30.436V42.563L178.068 50H153.68V39.012H156.628V16.299H153.68ZM157.231 42.027V46.985H176.259L182.758 41.022V31.374L179.14 27.622L182.758 24.205V14.691L176.795 8.326H157.231V13.284H160.179V42.027H157.231ZM166.008 42.027V29.163H173.981L176.929 32.178V39.749L174.45 42.027H166.008ZM166.008 25.344V13.284H174.584L176.929 15.897V22.865L174.383 25.344H166.008ZM169.559 22.262H173.378V16.299H169.559V22.262ZM169.559 39.012H173.378V32.178H169.559V39.012ZM216.636 19.716V16.299H210.874V21.592H222.264V31.508H210.874V39.012H216.636V33.518H227.691V50H194.995V39.012H197.943V16.299H194.995V5.311H227.289V19.716H216.636ZM198.546 42.027V46.985H224.14V36.533H219.718V42.027H207.323V28.493H218.713V24.607H207.323V13.284H219.718V16.701H223.738V8.326H198.546V13.284H201.494V42.027H198.546ZM254.4 39.012V50H236.31V39.012H239.258V16.299H236.31V5.311H261.033L269.207 13.82V26.014L264.517 30.704L268.604 39.012H272.825V50H261.033L252.993 33.518H252.189V39.012H254.4ZM239.861 42.027V46.985H251.318V42.027H248.638V30.503H254.936L263.043 46.985H269.274V42.027H266.125L260.162 30.034L265.656 24.54V15.16L259.09 8.326H239.861V13.284H242.809V42.027H239.861ZM248.638 26.215V13.284H256.879L259.827 16.232V23.401L256.879 26.215H248.638ZM252.189 23.2H256.276V16.299H252.189V23.2ZM298.195 39.012V50H280.373V39.012H283.321V16.299H280.373V5.311H298.195V16.299H296.252V19.917L301.344 15.093V5.311H319.166V16.299H314.744L305.096 25.009L315.347 39.012H320.037V50H303.019V40.285L297.19 32.245L296.252 33.25V39.012H298.195ZM283.924 42.027V46.985H295.113V42.027H292.701V32.178L297.592 27.555L308.178 42.027H306.101V46.985H316.486V42.027H313.739L300.942 24.607L313.337 13.284H315.615V8.326H304.426V13.284H307.374L292.701 26.751V13.284H295.113V8.326H283.924V13.284H286.872V42.027H283.924ZM325.359 50V39.012H328.776L340.367 5.311H352.36L362.946 39.012H366.229V50H348.206V39.012H351.02L350.082 35.997H341.305L340.367 39.012H343.047V50H325.359ZM328.91 46.985H339.965V42.027H336.548L339.697 32.982H351.757L354.638 42.027H351.288V46.985H362.41V42.027H360.266L349.613 8.326H342.98L331.389 42.027H328.91V46.985ZM340.903 29.498L345.995 14.758L350.685 29.498H340.903ZM344.186 27.086H347.268L345.861 22.53L344.186 27.086ZM390.831 39.012V50H373.21V39.012H376.158V16.299H373.21V5.311H390.831V16.299H389.089V21.257H395.454V16.299H393.712V5.311H411.333V16.299H408.385V39.012H411.333V50H393.712V39.012H395.454V31.642H389.089V39.012H390.831ZM376.761 42.027V46.985H387.749V42.027H385.538V28.627H399.005V42.027H396.794V46.985H407.782V42.027H404.834V13.284H407.782V8.326H396.794V13.284H399.005V24.272H385.538V13.284H387.749V8.326H376.761V13.284H379.709V42.027H376.761Z" fill="#FFA42B"/>
</svg>
