<svg width="102" height="50" viewBox="0 0 102 50" fill="none" xmlns="http://www.w3.org/2000/svg">
<g clip-path="url(#clip0_15_29)">
<path d="M11.8695 15.4302H15.3561C15.3561 15.4302 20.2293 13.0813 23.8873 11.8694C26.6321 10.9601 29.2101 10.2525 32.0475 9.64389C35.6054 8.88079 37.6349 8.60563 41.2463 8.16021C43.9901 7.82181 45.5313 7.59831 48.2938 7.49256C50.1756 7.42052 52.1514 7.49256 53.1158 7.49256C54.5567 7.49256 55.158 8.53152 56.1573 9.56971C57.3711 10.8307 58.1603 13.4273 58.1603 13.4273C58.1603 13.4273 58.7773 11.0048 59.8665 9.71807C60.7178 8.71227 60.8459 8.24214 61.7953 7.71511C61.7953 7.71511 65.0091 7.9476 67.0623 8.16021C69.1819 8.37969 72.4778 8.82787 72.4778 8.82787L77.5965 9.94063C79.5954 10.3752 83.6796 11.4985 83.6796 11.4985C83.6796 11.4985 80.0362 9.71046 77.5965 8.82787C75.1304 7.93576 73.6766 7.64791 71.1425 6.97327C69.1801 6.45088 68.0907 6.10294 66.098 5.71214C64.0877 5.31788 60.9051 4.9703 60.9051 4.9703C60.1353 4.49945 60.1248 4.19799 59.5698 3.48662C58.6828 2.34986 58.1603 0.0741577 58.1603 0.0741577C58.1603 0.0741577 57.562 2.35426 56.7508 3.48662C56.2253 4.22008 56.3177 4.74775 55.4155 4.74775C54.5253 4.74775 52.5296 4.63515 50.6677 4.5252C46.6138 4.2858 44.3296 4.71597 40.2819 5.04448C37.6988 5.25413 33.6796 5.71214 33.6796 5.71214C33.6796 5.71214 28.7367 6.39472 25.5935 6.97327C23.0622 7.43919 21.6309 7.66253 19.1395 8.30858C16.3724 9.0261 14.8103 9.44769 12.1662 10.5341C10.1408 11.3663 8.98032 11.8244 7.1217 12.9822C5.35104 14.0851 4.2541 14.6652 2.89321 16.2463C1.80735 17.5078 1.22595 18.3132 0.667691 19.8813C0.252256 21.0482 0.0742188 21.7584 0.0742188 22.997C0.0742188 24.2356 0.211729 24.9611 0.667691 26.1127C1.22684 27.525 1.89103 28.1613 2.89321 29.3026C3.75864 30.2884 5.34128 31.6023 5.34128 31.6023C5.34128 31.6023 7.22171 32.8969 8.45701 33.6795C9.54403 34.3682 10.1145 34.8319 11.276 35.3857C12.9467 36.1825 15.8012 36.7952 15.8012 36.7952C15.8012 36.7952 14.4248 35.9666 13.5757 35.3857C12.6527 34.7544 12.1444 34.3841 11.276 33.6795C10.5903 33.1231 10.1815 32.8326 9.56977 32.1958C8.81103 31.4061 8.35741 30.9477 7.86354 29.9703C7.42552 29.1034 7.27738 28.5552 7.1217 27.5964C6.94523 26.5098 6.95931 25.8663 7.1217 24.7774C7.27315 23.762 7.42101 23.1816 7.86354 22.2552C8.3556 21.2249 9.56977 19.8813 9.56977 19.8813V17.7299C9.56977 16.7669 10.9064 15.4302 11.8695 15.4302Z" fill="#FFA42B"/>
<path d="M92.6558 15.5787H89.9852C89.9852 15.5787 88.7379 14.6254 87.908 14.0579C87.0855 13.4954 85.7567 12.6855 85.7567 12.6855C85.7567 12.6855 87.956 13.4107 89.3175 13.9466C90.6791 14.4826 92.6558 15.5787 92.6558 15.5787Z" fill="#FFA42B"/>
<path d="M93.9911 17.2849C93.8219 16.8223 93.3976 16.1721 93.3976 16.1721C93.3976 16.1721 94.9366 17.0534 95.8457 17.73C96.7028 18.3678 97.1518 18.7709 97.9228 19.5104C98.7218 20.2766 99.2417 20.6638 99.8516 21.5875C100.655 22.8043 101.029 23.6248 101.187 25.0742C101.376 26.8082 100.938 27.8291 100.297 29.451C99.5724 31.2818 98.9058 32.2502 97.5519 33.6795C95.4538 35.8945 93.7064 36.6752 90.9495 37.9822C88.3728 39.2037 86.6832 39.6079 83.9762 40.5045C81.007 41.488 79.3216 41.7135 76.2611 42.3591C72.5446 43.1429 70.4107 43.5439 66.6172 43.9911C62.3512 44.4939 55.638 44.6588 55.638 44.6588H47.0326C47.0326 44.6588 46.1076 45.4108 45.6231 45.9941C44.5463 47.2907 43.8427 49.9258 43.8427 49.9258C43.8427 49.9258 42.7445 46.719 41.1721 45.4006C39.8399 44.2835 38.7549 44.1273 37.092 43.6202C35.3197 43.0798 34.2341 43.1726 32.4184 42.8042C29.7878 42.2705 28.2887 42.0194 25.7418 41.1721C22.9227 40.2343 18.4718 38.2789 18.4718 38.2789C18.4718 38.2789 25.3895 40.1419 29.7478 40.8754C32.0227 41.2582 33.3133 41.3818 35.6083 41.6172C37.7767 41.8396 41.1721 42.0623 41.1721 42.0623C41.1721 42.0623 42.3383 40.6944 42.8783 39.6884C43.3644 38.7831 43.6202 37.2404 43.6202 37.2404C43.6202 37.2404 44.0693 38.801 44.5104 39.6884C45.0503 40.7746 46.5133 42.0623 46.5133 42.0623C46.5133 42.0623 49.1835 42.1556 50.8902 42.0623C52.5194 41.9733 54.4276 41.8981 56.6765 41.6172C58.1605 41.4319 58.9804 41.2421 60.4599 41.0237C62.8595 40.6696 64.2252 40.6101 66.6172 40.2077C69.0377 39.8005 70.3808 39.4896 72.7745 38.9466C74.8987 38.4647 76.1096 38.2573 78.1899 37.6113C79.2136 37.2933 79.7829 37.0982 80.7863 36.7211C82.0504 36.2459 82.7538 35.9598 83.9762 35.3858L84.0368 35.3573C85.0314 34.8902 85.6101 34.6186 86.5727 34.0505C87.3478 33.593 88.5015 32.7893 88.5015 32.7893H91.3205L92.0623 31.9733L92.4332 31.454L92.6558 28.9318C92.6558 28.9318 93.1599 28.4749 93.3976 28.1157C93.8941 27.3657 93.7897 26.7669 93.9911 25.8902C94.2415 24.7991 94.5215 24.1905 94.5104 23.0712C94.4998 22.0088 94.0998 21.4574 93.9911 20.4006C93.8665 19.1902 94.4089 18.4276 93.9911 17.2849Z" fill="#FFA42B"/>
<path d="M27.2101 35.8637L25.8606 36.0364L25.7943 36.6902L24.8723 36.8082L25.3315 33.0956L26.3514 32.9651L28.5088 36.3429L27.5765 36.4622L27.2101 35.8637ZM26.8239 35.226L26.0649 33.9855L25.9328 35.3401L26.8239 35.226Z" fill="#FFA42B"/>
<path d="M29.7914 35.542L30.9476 35.4154L31.0852 36.0869L29.0462 36.3101L28.3147 32.7389L29.1975 32.6423L29.7914 35.542Z" fill="#FFA42B"/>
<path d="M32.084 32.3555L32.4516 34.5052C32.4884 34.7202 32.5702 34.8809 32.6969 34.9871C32.8236 35.0933 32.9904 35.1371 33.1973 35.1181C33.4042 35.0992 33.5528 35.0267 33.6433 34.9006C33.7337 34.7745 33.7605 34.604 33.7239 34.389L33.3561 32.2392L34.2404 32.1584L34.6073 34.3031C34.6622 34.6239 34.6396 34.9015 34.5396 35.1357C34.4396 35.3702 34.2821 35.5544 34.0669 35.6884C33.8552 35.8222 33.6062 35.9021 33.32 35.9283C33.034 35.9544 32.7678 35.9233 32.5215 35.8349C32.2782 35.7427 32.0721 35.5918 31.9031 35.3819C31.7335 35.1687 31.6214 34.9016 31.5665 34.581L31.1997 32.4362L32.084 32.3555Z" fill="#FFA42B"/>
<path d="M39.2988 31.8088L39.7587 35.4251L38.8728 35.4852L38.5968 33.3165L38.0593 35.5405L37.3443 35.589L36.2492 33.4708L36.5258 35.6447L35.6399 35.7049L35.1799 32.0886L36.2264 32.0175L37.5655 34.4518L38.2574 31.8795L39.2988 31.8088Z" fill="#FFA42B"/>
<path d="M41.0742 31.7349L41.2558 33.9083C41.2741 34.1257 41.3416 34.2905 41.4586 34.403C41.5757 34.5156 41.7379 34.5672 41.9454 34.5579C42.153 34.5487 42.3072 34.483 42.4081 34.3607C42.5088 34.2385 42.5502 34.0686 42.5321 33.8514L42.3503 31.6779L43.2374 31.6383L43.4187 33.8066C43.4459 34.1307 43.3996 34.4082 43.28 34.6386C43.1604 34.869 42.9877 35.0463 42.7621 35.1706C42.54 35.295 42.2852 35.3634 41.9983 35.3763C41.7112 35.389 41.4489 35.3454 41.2115 35.2451C40.977 35.1414 40.7849 34.9803 40.6346 34.7619C40.4842 34.5401 40.3954 34.2671 40.3683 33.9428L40.1871 31.7745L41.0742 31.7349Z" fill="#FFA42B"/>
<path d="M47.6043 35.1767L46.7165 35.1975L45.1329 32.9861L45.2318 35.2325L44.3441 35.2533L44.1838 31.6114L45.0715 31.5905L46.6556 33.8123L46.5562 31.5556L47.4441 31.5347L47.6043 35.1767Z" fill="#FFA42B"/>
<path d="M49.3071 31.5259L49.356 35.171L48.468 35.1773L48.4193 31.5323L49.3071 31.5259Z" fill="#FFA42B"/>
<path d="M51.4299 31.5278L51.3952 33.7085C51.3918 33.9266 51.4427 34.0948 51.5482 34.2135C51.6537 34.3321 51.8102 34.3923 52.0179 34.3941C52.2256 34.3959 52.3857 34.3383 52.4985 34.2215C52.6111 34.1048 52.6691 33.9374 52.6727 33.7193L52.7074 31.5386L53.5952 31.5462L53.5606 33.7217C53.5555 34.0471 53.4819 34.3217 53.3399 34.5456C53.1977 34.7693 53.0081 34.9374 52.7709 35.0496C52.5372 35.1619 52.2765 35.2168 51.9893 35.2143C51.7019 35.2119 51.4449 35.1543 51.2182 35.0416C50.9951 34.9254 50.8194 34.7543 50.6915 34.5282C50.5635 34.2985 50.5022 34.0211 50.5074 33.6957L50.542 31.5202L51.4299 31.5278Z" fill="#FFA42B"/>
<path d="M58.6768 31.6933L58.4611 35.3322L57.5736 35.3042L57.7029 33.1218L56.7587 35.2783L56.0424 35.2555L55.352 33.042L55.2224 35.2295L54.3348 35.2013L54.5506 31.5623L55.5989 31.5957L56.4721 34.1473L57.6335 31.6602L58.6768 31.6933Z" fill="#FFA42B"/>
<path d="M62.1932 35.5696C61.9272 35.553 61.6938 35.495 61.4931 35.3957C61.2925 35.2966 61.1382 35.1588 61.0302 34.9822C60.9256 34.8059 60.8837 34.599 60.9046 34.3613L61.848 34.4205C61.846 34.5555 61.8805 34.6616 61.9515 34.7387C62.0229 34.8125 62.1224 34.8534 62.2503 34.8614C62.3816 34.8697 62.4888 34.847 62.5716 34.7933C62.6549 34.7362 62.7029 34.6543 62.7153 34.5478C62.7259 34.4583 62.7035 34.3825 62.6481 34.3202C62.5962 34.258 62.5276 34.2052 62.4422 34.1617C62.3603 34.1184 62.241 34.0677 62.0842 34.0094C61.8578 33.9224 61.6745 33.8381 61.5345 33.7565C61.3944 33.6751 61.279 33.5604 61.1885 33.4128C61.098 33.265 61.0661 33.0778 61.0928 32.8509C61.1324 32.514 61.2859 32.2586 61.5535 32.0849C61.8214 31.9077 62.1523 31.8315 62.5462 31.8562C62.9469 31.8815 63.2587 31.9979 63.4814 32.2059C63.7045 32.4104 63.8046 32.6834 63.7819 33.0249L62.823 32.9647C62.83 32.8473 62.7975 32.7536 62.7257 32.6832C62.6543 32.6095 62.5564 32.5687 62.4321 32.5608C62.325 32.5542 62.2351 32.5779 62.1627 32.6322C62.0904 32.6831 62.0481 32.7619 62.0357 32.8686C62.0219 32.9853 62.0665 33.08 62.1693 33.1522C62.2721 33.2245 62.4367 33.3058 62.6628 33.3963C62.8883 33.4901 63.0695 33.5776 63.2061 33.6589C63.3462 33.7405 63.4618 33.8534 63.5527 33.9976C63.6437 34.1419 63.6763 34.3224 63.6509 34.539C63.6266 34.7453 63.5511 34.9292 63.4242 35.091C63.3006 35.253 63.133 35.3775 62.9208 35.4647C62.7086 35.5518 62.4662 35.5868 62.1932 35.5696Z" fill="#FFA42B"/>
<path d="M67.4931 32.2749L67.3865 32.9783L66.4237 32.9003L65.9838 35.801L65.0988 35.7294L65.5387 32.8286L64.5759 32.7506L64.6826 32.0472L67.4931 32.2749Z" fill="#FFA42B"/>
<path d="M69.0656 33.1351L68.932 33.8604L70.1156 33.9767L69.9915 34.6509L68.808 34.5345L68.6633 35.321L70.0018 35.4526L69.8731 36.1522L67.6509 35.9338L68.3105 32.3486L70.5328 32.567L70.404 33.2667L69.0656 33.1351Z" fill="#FFA42B"/>
<path d="M72.2033 33.4616L72.0481 34.1824L73.2295 34.3183L73.0853 34.9883L71.9039 34.8525L71.7356 35.6343L73.0717 35.788L72.922 36.4834L70.7037 36.2283L71.4708 32.6646L73.6892 32.9197L73.5395 33.6151L72.2033 33.4616Z" fill="#FFA42B"/>
<path d="M74.794 36.022L75.9473 36.1732L75.784 36.8389L73.7501 36.5723L74.619 33.0319L75.4994 33.1474L74.794 36.022Z" fill="#FFA42B"/>
<path d="M17.6433 16.2461C18.1929 16.1886 18.7162 16.2895 19.23 16.5025C19.7243 16.7398 20.1406 17.074 20.4791 17.5053C20.7981 17.961 21.0096 18.45 21.0722 18.9991L21.3481 21.4153C21.4558 22.3596 21.1427 23.126 20.4553 23.7313C21.1921 24.1432 21.6411 24.7629 21.8242 25.5884L22.1249 28.2242C22.1902 28.7952 22.0939 29.3165 21.8826 29.8053C21.6519 30.3184 21.3208 30.731 20.8892 31.0429C20.438 31.3789 19.9473 31.5636 19.3978 31.6211L12.4938 32.3433L10.7394 16.9682L17.6433 16.2461ZM17.7878 22.3877L17.4746 19.6421L14.7482 19.9274L15.0614 22.673L17.7878 22.3877ZM18.4671 28.3401L18.1538 25.5945L15.4274 25.8797L15.7406 28.6252L18.4671 28.3401Z" fill="#FFA42B"/>
<path d="M25.2395 15.5562L33.8434 15.0012L34.0848 18.4191L29.2313 18.7323L29.4198 21.4006L33.9423 21.1087L34.1727 24.3725L29.6503 24.6642L29.8388 27.3325L34.6922 27.0194L34.9336 30.4374L26.3299 30.9926L25.2395 15.5562Z" fill="#FFA42B"/>
<path d="M45.0215 14.622C45.574 14.6083 46.0865 14.7503 46.58 15.0034C47.0518 15.2793 47.4377 15.6456 47.7377 16.1026C48.016 16.5821 48.1846 17.0865 48.1995 17.6389L48.2657 20.0698C48.2915 21.0201 47.9135 21.7592 47.1765 22.3082C47.8749 22.7773 48.2687 23.431 48.3798 24.2686L48.536 30.0143L44.8454 30.1058L44.688 24.3161L42.0359 24.3819L42.1933 30.1717L38.5027 30.2634L38.082 14.7943L45.0215 14.622ZM44.596 20.9349L44.5179 18.062L41.8659 18.1279L41.944 21.0008L44.596 20.9349Z" fill="#FFA42B"/>
<path d="M56.3883 14.5839L56.2723 20.618L58.9246 20.6645L59.0408 14.6305L62.7321 14.6954L62.63 20C62.6215 20.4421 62.5254 20.8384 62.3635 21.2114C62.1789 21.6061 61.9516 21.9338 61.6591 22.1939C61.941 22.4864 62.1556 22.8218 62.3252 23.2006C62.4723 23.6012 62.553 24.0006 62.545 24.4206L62.4344 30.1672L58.7432 30.1024L58.8592 24.0684L56.2068 24.0218L56.0908 30.0558L52.3994 29.991L52.697 14.519L56.3883 14.5839Z" fill="#FFA42B"/>
<path d="M67.7901 16.4359C68.0857 15.9887 68.4857 15.6365 68.9901 15.3791C69.471 15.1425 69.9888 15.0187 70.5625 15.0534L74.402 15.2858C74.9538 15.3192 75.4509 15.5043 75.9189 15.7984C76.3633 16.1132 76.7135 16.5109 76.9698 16.9916C77.2024 17.4928 77.3233 18.0095 77.2867 18.561L76.4683 30.9137L72.7833 30.6907L73.0741 26.3011L70.4262 26.1408L70.1354 30.5304L66.4502 30.3074L67.2686 17.9546C67.3051 17.4033 67.4711 16.9039 67.7901 16.4359ZM73.3006 22.8821L73.5739 18.757L70.9259 18.5968L70.6526 22.7217L73.3006 22.8821Z" fill="#FFA42B"/>
<path d="M82.3767 15.8575L86.0488 16.2393L85.3713 22.1918L88.0099 22.4661L88.6873 16.5136L92.3593 16.8952L90.6097 32.2709L86.9376 31.8891L87.6151 25.9366L84.9765 25.6623L84.2991 31.6148L80.627 31.2332L82.3767 15.8575Z" fill="#FFA42B"/>
</g>
<defs>
<clipPath id="clip0_15_29">
<rect width="101.335" height="50" fill="white"/>
</clipPath>
</defs>
</svg>
